<mxfile host="app.diagrams.net" agent="Mozilla/5.0 (Windows NT 10.0; Win64; x64) AppleWebKit/537.36 (KHTML, like Gecko) Chrome/127.0.0.0 Safari/537.36" version="24.7.7" pages="2">
  <diagram name="Dashing and Jumping" id="-uebnoRdWXTXBL73Pq3z">
    <mxGraphModel dx="2017" dy="3988" grid="1" gridSize="22" guides="1" tooltips="1" connect="1" arrows="1" fold="1" page="1" pageScale="1" pageWidth="850" pageHeight="1100" background="none" math="0" shadow="0">
      <root>
        <mxCell id="0" />
        <mxCell id="1" parent="0" />
        <mxCell id="CY8MMUGnLJXL2RhmMoPn-47" value="" style="shape=stencil(lVbLctswDPwaXTEkwAd4TtP/yEycWlPXzjhum/x9oWqUiKS0bW4yjSUeuwAxyN3L8eH5MLB7uV0v3w+/x8fbcZAvA/N4Ph6u482+Brkf5O7pcj18u15+nh/n388Pk+X09ePya7rhdcZ558i5CcbubT6KJPHvwdcZcBrPK0ARklDZs5DqPkAd+VgBglAK+4DkSeqIkgH8PiB48loB1FOQfQB7SlIBSqYIkvaFUqoBupxsAxKprwGFAqiSt7LmFlBADoUyd/YgokQsrX0EAQlxl7ECEoyDrqQZsGyya+5PsECmoqY+cTnZiSc08Qisp1Bu7JkKyLcnmIkdiMeRNAl70gIAoW1M8+CQh9x5YIoM2sA4yG2NAvBgRdUGECgCkpmXtlqxpqgzLcUGkMkjD67jWUmQTjNpPb+sERh4MB5iagEKympMl9rDashuIvIycVceMhhHoeuFQh4po9O2kgcZOOLS9ibqhe4JMZYTiMctwl/JSIAqPmtv41rrgmaFj5ooldpDeidxExATxbr97RFKYBwlJa7ntUkddUK2VqxJDsQghRxaB7JM5G37SLkmjaGGcl5E/67q5UXZe/ZD3TZu6aNte+ntPchXE6XY2KMe004TDtbHZmcz6xwcdSb5KE19PBjvNteSNvV3aO8qy3Uf/DoguGkdqO8P/3ifPrkI/gfAPj72zqfxdJrX1vX/7Z5qR/OOK/d/AA==);lineShape=1;strokeColor=#000000;" parent="1" vertex="1">
          <mxGeometry x="-154" y="-836" height="22" as="geometry" />
        </mxCell>
        <mxCell id="CY8MMUGnLJXL2RhmMoPn-49" value="" style="shape=stencil(lVbLctswDPwaXXdIgM9zmv5HZuLUmrp2xnHa5u8DVSNWhCVMe6NprIjHLoCBH96OT6+Hgdzb7Xr5fvg1Pt+OA38ZiMbz8XAdb3Ia+HHgh5fL9fDtenk/P8+/X58my+n04/Jz+sLvGVcZIU0och/zDXlE/+fm6ww4jecVoHiQ6wEFOe4DMiHkDhB4+cQmIDmk3qVYQXUfEBIqdYAiLhkvhADvO4CkwdE+gCt86QEJMRsAQupdqgW17AMownMH8M7BGUH4jNgXolZEIwjvlsI2QEay0oSq7AMCGw+AVJIcOOzbt/ha2SKykdQ75gkXvcUL5J5HOcMZNZAEcR9wZhTLoQxSL3hUI6PiUikawIZLwiOuPUBuDLVxo1kDSBoMVogYNaCAjKqJ2kofdCFEC5DBSp4Z3khriGDFbI9kveDhevHUuIhjO0tC7aDlyUaWSJSiuF1RLMAduSeAUThPS5nWLhnslgZUdMyWmmmp6iqp2aCeg4+6alaKpLv0NRBaJPP7G/ZGvN4vzaGNBXEo2S2114608WwAOC5To422aDI73o02aSEWs1PULUlGoUGKVJcStQfMFi9a594hh2AM8yyDVdtbM6cEPQdby9y2LyhqqpkcqqR1SebUlCmsRk5cHNy2L0g9qTOKEa9oVm0WUmCL1Kuh3RCMZFBi2gsUoCl7L2bVinw1G/Z/r3j/AJDD343yZTyd5oV0/b/eQOVq3l758RM=);lineShape=1;strokeColor=#3399FF;" parent="1" vertex="1">
          <mxGeometry x="-220" y="-902" height="22" as="geometry" />
        </mxCell>
        <mxCell id="CY8MMUGnLJXL2RhmMoPn-50" value="" style="shape=stencil(lZbbcttACIafRrfMLuwBrtP0PTITp/bUtTOOe3r7ompkGyTR6Z0s84mFn8MO9PSxf3nfDZg+rpfz193Pw+t1P9CnAfFw2u8uh6s+DfQ80NPb+bL7cjl/P71Ov99fRsvx6dv5x/iFXxNHHTqOFKbf05sK2P6++DzZHw+nB/vC0NnY5waM20BVIBsABUrZBhpDtUApkGQb6Ay5GqAlyGkbYIZkY+4FpG4DIpCsB5YwSzklSMkQkoGDIISBuwXKnId1oHohRIWIgsiQmgUYWgBwhSwWEOiBcioEJw9IpBxCrR4gDmqjz8LegA7SA4C81Jo3CcpVS6eTBQgKhUBxwukngtpoCGiF03rEQOmmJ7bCcYMUHKlnyDYGLmHL9Q5YLEDQAg/j320BBDpov7gpoEeqQZa0+vsiaAyaWosZxac1Em6sTXuksUMiD7JQ+paGdaBDch4a5KD4BBc9zbOU62ldCHc/5DqQ5kF3G9/3UbVeG6oTexeR1Dq/u/ggatRyZRb2IU1RXlsGXMxKDObMfwNlUa5dB1MAkKbdAhoVBWnVJegmmW7WKK35tjVngFSZwEPWarbCIUILhqtODRtCTvPgWbVfrrh5wWyZu6U7+9s6je3/Gg5JArIK69SOFom/Y+B8uo19DsXGmsItkgtwdvYY9PEorjj7qCmxQO7++8GAR+1Aby+BPaEvNgy1peoXOUEN4l29dQbF/+9bqj7cr7hvh+NxuiE//u+vxPpquk7T8x8=);lineShape=1;strokeColor=#3399FF;" parent="1" vertex="1">
          <mxGeometry x="-220" y="-880" height="22" as="geometry" />
        </mxCell>
        <mxCell id="CY8MMUGnLJXL2RhmMoPn-55" value="" style="shape=stencil(7VjLUlsxDP2abDW2/F5T+h/MEEqmlDCBvv6+clPTSE6Pw64Ldje5Or56HknehKvn+5un7Ybd88th/3n7fXf7cr8JHzbMu8f77WH3Ik+bcL0JV3f7w/bTYf/18fb4++mmS/anL/tv/YQfR5wjzx3E7ufxj1Yoh9//fDzKP+welbxzWt4RM5KPXslXTyUi+aLlCxNDfVpQ8lnOB/KeXFPySb7YkDxre0OjXKF8VfLciBOSD1HJ+0a1wPO1f7ynCvSX6OjzMzkYLqePZ0rAWjdpTy1DY43yFICtPDwxxB1VcHq0qSC5BzKtUMhG3KNAiWvs8X9K4bw8U7HaQ/k0tL1QnzJ7B5kreTW5B3lTYhN1pSyCxRTz5vJcEPmiz8epFj3lpM/nUQtnASlR0w7qFgMLyiszXVi7NQ+qeSWHTAEUY6vUNNt2q0DQmgRNqxR5EOq/ANUAAuRnUSk7C2jASy2PNHgFxHHEeUCgoCkxplFK5906G51gD5A4mCYjAA9yr4bx+sSGCuJQHaVgAQwiXSrVya0JA7xO78iwMQkgGy9JwQGA2MDBAhhEurKthyi9EkS6pim9pUGgAmoUgwUwqgem5i0gouQTlaoFVASotqWJl+AXmiUBCZxHROymGUoQDbhJPuHNJwIccmSGM1OCpCukjWibjwAaAnjyc8mh7CuUigUg+q5xnHeqEkpX6U9sAQlErrSR/iduRSzwZkCuFHVRhwrjkNjSd/CQyUKyU4C00Qzi0AdC00bF0aioLXsXGOf3AfJ9gPw/B8iurpbHq1C3V/PJYtUSgFFotcvJa12Lq2VxCsFiG+0po7+wWHc7PejetNine9JoLy0W9r7ha8DiRkDSwHS/xZVD3/E1SyzuNOZLB5kCUG/qgZsAyAY/saj0dPiFPFrXCQBN2cLipjf1VQBRqSSzSW+HCaZN5LsA5KHAhSrFEaULbRYCSG9yqh0QFlGbUrunBdDn7XdpK3l5+Htxd7d7eDje+52+txd98tfxkjBc/wI=);lineShape=1;strokeColor=#000000;" parent="1" vertex="1">
          <mxGeometry x="-220" y="-902" height="44" as="geometry" />
        </mxCell>
        <mxCell id="CY8MMUGnLJXL2RhmMoPn-68" value="" style="shape=stencil(lVjbUlsxDPyavGpsyxf5mdL/YIZQMqWECfT295Wb8cmxnLMZ3kLQxpa0uqx3fPf+/PC23wX3/nE6ft//Pjx+PO/4yy6Ew+vz/nT40E87vt/x3dPxtP92Ov58fTz//fbQLNunH8df7Rf+nHGOmBsouL/nL6pQSv+/+Xq2fzm8ruwDORntCwVgHymF0T5RiNv2haqxD+TLtr0PlPIAkEIiACDkyghYfuK6x5HieKWSyQEX2FMcY5SFGFyJK/k0AFIlqSCoxfqQPHkASInceEIMVNw2IC//7gCOVEGec6U0AoJQAE6XRHG8knKLgQ+iVI0DwBeKIHESiUdqeKYInFbmFENumIbqKI8+lx7m6/aB6pi2SBkQqWrIx+IMlIHDNVMc7X3nyXX7QrkO9o4ciE+tnWQXe0b3r70SL/eH8alUx99X2oL4e7fc95Iw6PB0gDJCAvZgPEDbR2EISCZlTIyv5EdOKImKBwCxJNV+E9CVxHZIZqoozWL7FyfYUhvAnCA40QrwFsDYhyAWkFBYxc4pBRRUOzo1ogUILp40nQC7RbGjtgEQ+Qr5KUoZXSn3Fr0CRJSHTDIlzqNMK8CcUDCXsm1hCsgo02VKXOlk2QyrswC0YbTETT74G9TwE+AG+aYTAgaECQATJ31UrsN6o0TnxCGnxc4SpQYMq1yhd8Jtxk9sRTuJ5sFySXrRbs63MgFwic59SVAeSi+XtQ+I3tlOoBYlDJDpBMiluUQFT/VPA7RETZQSFZyHYBLHVHBvtWzVTeZGiY47uk7RhDI9kU/nNFpX67LCrzYB2IzFKp+2a+AZZ5zW1QDXj9mHE9QArVHabQx2sTS1PewwWx4lyqh2VCYZIQaXNxFbzd7BapZFaS6ACEeJ6CI1euyXVei6hsnEhnYMTyjOShJNMgNA5k7jVa1VECVVenU8ITLsqlHsDp0wL6LrS/kibx1cDzlYAa1iEelhJY5hdlm2gi1NX0dqC0Nl1YSgeTWosOdJL92lNhlKn2RdbtoMcDXY0abVncFuqHJ/jFBTKiBpzo6dJoVAQ3W29ldaawOQ4ycBJgPtRqBduF4na4+hB2Yyqz2azG562KpQYah9sPbo+WKWqpUCjM/8+w50iqkqq8Bx46yWr3ieffah8La9fri8Sj4dXl7Oj5rr/9tXTP3q/ALK9/8A);lineShape=1;strokeColor=#000000;" parent="1" vertex="1">
          <mxGeometry x="555.1232564585148" y="-759.2964227360724" width="111.34302183228776" height="103.14017167442294" as="geometry" />
        </mxCell>
        <mxCell id="CY8MMUGnLJXL2RhmMoPn-69" value="" style="shape=stencil(lVbLbttADPwaXQnue/ecpv8RIE5t1LUDx2mbvw+3wsombQ2amywPV+RwhtwpPLxtn143k+e38+n4c/Nn93zeTuHb5P3usN2cdmd5msLjFB5ejqfNj9Px/fA8/3596sj+9Ov4u5/wd45rhXztUZ4/5je+UEn/3nyfA/a7w1VArVSTCgieIq8HlErJBFQqdT0gZ2JWAbHClJKjoAOypBTXA0KkpgNKptLWA1ylVlRAbeQL+AKxU/jWxifv4j25bPEVVCAVa06bsAzwTFl3uWVyAeG9yd9TBfWybZnw40C9gtf11jS+uIIPTeMdZY/wTfMjKsyowePfa0EAfjwlr/GJWkZ6CMWejxQayUWbP+pXHAZZ+OFh0/uWGact+EgBnC/dMf2SfICH5fwb/TDoV7T8t0QR1suaT9E/Q/69Ob9RBvwv82PgHS8SXxPQjeGxAapJqBBDAwedUBMKoIHZ4BcLreF1/lUECvHeCM5TAQ1gKkbQjRIYKG60f8GXIcGVhnlzvmwRINCv4l21EyunQcF9xQWqOiCJqEDFie0OCAVqNEe7lPraARwJhVl/wTlqYOp2k5vVTQ2ITpaKcQE2jWjeqJqhqNtNExhuJcEXnQ9ugXjWqFrmKphafYjofAolwGe/BOi14WQxIxfwzWJ1EQ7Syz1jCRCSgSgug3DhiKHzO0mG1DDMtNaFrFmV9RCBdXqbdQ0+UwPm/PIl9j8C5OFyZ37Z7ffzlfv6f3vHllfz/Tw8fgI=);lineShape=1;strokeColor=#000000;" parent="1" vertex="1">
          <mxGeometry x="636.2126464733692" y="-759.7648221783886" width="28.01446575934668" height="6.129234283519119" as="geometry" />
        </mxCell>
        <mxCell id="CY8MMUGnLJXL2RhmMoPn-76" value="" style="shape=stencil(7VrLchw3DPyavaIIgiTAs+P8h6ssR6ookkuW8/j7gFE4EsHdXjunHHyTdthDvNEE5yTvvtx++HxzyunL89Pjrzd/3H18vj3JT6ec7x5ub57unv2vk7w/ybtPj083vzw9fn34+PL/5w9j5fjrt8ffxxv+fMF1JZWByumvf3/plPs/v/z8Ari/e1gBYitAqTcAaJTqCmiUKwAU6n0FVMoFAISaroBCKQNAJuYVkKkZAKQpwAFgSnoZYIdNJsA6MTCrVZJVaX9FTgDgEqcVUCkBP2gnzSsgkyFAox4AiSoCCNkaGopDQxPZ6gfFnm5KNQAyBkj0Q+swNFqK4d0qGQDURrr6oWUqQKQqxKtZq4sEPF3ccWvw1UoViFQa1VWHytQZAITKaqViJGgHt9Ka06VQAwBR4lUkf4WBjBMhXUWSBmNJXKS1CPgrElA6K6U143InAY7LZbrpADSYcZmphB0EhgZ3Kmt4j1eAHXir3jlRQjs0KmvwsZGBusSFyuppPux2HuDRv3qavbSB8GaOfvA9GfWHGN2+paLSOp10rOcZKudLALVQ66mD5XWrw2RA+kJ5dYDCdiuxeXo1EmBM0pCX0JSJWgjQqcyF5Rw8RQaXB9kZlq0U04spA1W3tyfqcHmQ3XWHlgmZePxwYbnG5Rks5xiSCbIJjjmYYMPgGYDftjxPM3+bMDmmH1Y1R06ADSmRmWE31cjLGLYhi/Eu07LnDSmxvNaZX5fqd1+lx2109I+1ZzFWV3ja+k3tqwhQicMOBTYIB8QG4SUE9V3nIlv5Rm3UAc0iANHKAdh0UMQdXKQN0FGR3ci396wrSnOJgIxEKjEnR1dEVjps8haAGFaZArwVCRREB8S+WGFndz4VotvNiriDA6xFADpmDcAWS4j/DB0kAjIG5A3AoDgOP6QIQNXUARp0EMgfPJbSlg+IuMoROW91QKHh+bABYLR6xm2OK1cAm+MU69C2MtOxDmWLVsY7RE9XOHZwx/U9RXECte8FhCPKEAmFxncDttOrB5+hM02N5zJvKCj4xnEhjH9IEXXJk/O98l1UxjR67UohjocNge1wP5BRg6zuB9/9wXf/T3xXtm4ECaxX7TAegDyoxoJWIN3dJ1/wKKuzULxWAlQ5LApjcA7nzDkFdpIm9700d4hdkSEP9VIaE9adjXbYzH+FbHAjCTo0DNjGzF6fYar0jWx0OGYe8bgCXnP/PCDPGnkA8pxfXmpBQenxCxqr2RbVNvnKpVNTOMZJhjtIjVkpDc6wxGbbeTPeRMW8cBzGF8wSS5nRfwAUKu2Pe+ikDEfl/jiOmgpsd/449IxqkGHVLVobQx3G4zVFW8XT+430NZvztvMAi9GqDEe0ul0daYEFXjeGpQpzWi3qoB32BONpk6NSMpyt23YpYsc56jygzaHjAcB1yXo8vZpdu5ELweevQOV+3PCFOz881e013qL4nqi7dXdTuBnFVuo2ufkBqJAq9D657QFocxBxCRDGux0XAQfEq1R818RpY6XjPhgrEY5NvcOE8Me23TijqfN43CJAsdalRABKiOEIiwBUjd3VcRSSMOl0RLxV8C2QTLbds3d4QnYA71ojR+gZz8Fo0nhdOyyNdPgPHxdcA/gfr98yfLq7v3/5FOLt8/jtg//08t2EvP8b);lineShape=1;strokeColor=#3399FF;" parent="1" vertex="1">
          <mxGeometry x="554.5377975763905" y="-904.3520586311174" width="88.58801775094096" height="118.10550555959473" as="geometry" />
        </mxCell>
        <mxCell id="CY8MMUGnLJXL2RhmMoPn-77" value="" style="shape=stencil(lVbLctswDPwaXTEgwec5Tf8jM3FqTV0747ht8veFqmEtgvZ2cpOlXZN47AKTPLztn153k+e3y/n0ffd7fr7sJ/kyeT8f97vzfNGnSR4neXg5nXffzqefx+f19+vTglyefpx+Lf/wvvJqpSQLy/PH+kYour8vvq74w3zc4plK7PDOUS73CblSdh1BT0jhPiElquZGFV4pCoXaEWImifcJ+n85dYQcKIIr+UKJO0Ip5ADBVZLSEaoSQAxOP1dLKOiERM73hEpBAEFIqiXAE5h8H4NjJmZQanJiT6gg6EA+WnwEreSoJotnEDLbvtCcCsRzX+WaKSaEjybeBKXgiYPFc0X5ERNvpAj6Og/5jORRS2iC2BIcOEB7KA4E8bBLvbOEjK5UhhgSrJkqLZgTMnGGhJgsoaCgVfxDGyWk5URlUJoHfeRCs6sNAWbJkQRLqCBodZdBOQgfb+AzCNk3R99GDJVWBntEyldlmgRpzUDfqXUFi2fgdZ/FV3K5nwfqfUj53Izq38RRKQHpi9gKx0QB3CioTHodSGn2dLvExbqjVjGAnkg6kPqmUP8QcKWcKfVVUwNEm4LKyhxAAQizcFNVwzNVMJ6Kb05yxQcgyxKam1/xyB21B0I0eDQudZUyM1/xaPXybV5v7gPyubi/xcPVLt/IJ2gI1azJj4MdV8dNsMnozngaBrKHG8und9n/4vXhuji/zIfDundvv9tFW1+tS7o8/gE=);lineShape=1;strokeColor=#3399FF;" parent="1" vertex="1">
          <mxGeometry x="549.9991192519752" y="-901.9311499227892" width="7.482286501821883" height="30.22169927430488" as="geometry" />
        </mxCell>
        <mxCell id="CY8MMUGnLJXL2RhmMoPn-82" value="" style="shape=stencil(nVhbbhsxDDyNfwm9RX6n6T0CxGmMpnHgpK/bl6ohe0WtZ9H+rdecFZ9DUrt49/788LbfBff+cTp+3f88PH487+KnXQiH1+f96fChT7t4v4t3T8fT/svp+P318fz77aFJtqdvxx/tC7/OOEeBGyi43+cXwhTy3zefz/Ivh9eFvCeJo3yhyLflE3k/yidy6bZ8oepGeU+x3JYX4lGeVf8I9I/kDCCT8wCg9oUR4Kk4ABCS0aW19jergBCp5hGQKAKVQqVcR4CjHG4Domo82lAKMQJkkjICAlUASI7qGOfM5AQAMvHopRygStlTGE9IhQTEIRdKow1NSZDaRb00qhQTZXBCuSjQAYEp1tuAGsiNcQiBElCpapjSANB0FHCC5mYYVfJ6JgIk4jH5GJYDV+uk1AO5Li+UR/lAGdSnOCrGYqiPRIqjwa4X+Lp8olLN9wvIU8m2OCMxki/Wn8poSL4SG33UAJASys+m0pTSEoiwiKV4XyG9KMCEWH2UAGcrQEaVQoYA75xlYSVyRNvtiGIBGevE3gIQv8iUqNHBTtX8KhbgQSlo5KRaADSaqeTpBBTqC/0sbUChZvLZeqliGyyDCSWU37wS6Q0vudEGZSTGRodsAQUbnSfaThjAM88jklETowUE5CXp9bI8AXlJ7JykgIxZgGVyK64HMQC1agPAFrBBG4b6WvJhEigTAE1Wza2jl1oBIXIVchMJBGS0snGZACg12E4lrUQ30nuquI16cFNNZ9yC5kgH5Nb/AJimqA0CZmvt5L5oQQWtAZXc6FZtcgWdUCxV+oT7bu6T2qJRM2INHeJHEqhwhNZJxgQ6dTevy4dOWtfJKqLv+16+10mmApfyVAul+3hdvlgeVr4A+nPoLL0YZALgi6qVYGLMnWfXAXFi1Qg7Q2EbslY6CBAt0evmVIBKudqVIXm8xQS7uiXucVlfrGqfKS6LVYIEk0Ifcy4AgSt3rHagLKlPBeuAQDLaUBjSsLYmGVWqHtaa0onJ7Zq739YBvrfXC0BgS1c6qSNA81fQvUGiZAAFLofe2+TTCkQ2TMmqjIBmt2x3SaW0DKIQO+Ne5CtMVW8njNavQR5dFq+FPKOrG9s528SBtoxpFXZ4N3Q267YBswUCLHArFqC0dpbwmkeBxc5WQRuAoD4uWnlE2dPWJgwjMH+f4bLtLJtep6Vb/vmny8tteX243pQ+HV5ezhety//tzaq+Ot/Kxvs/);lineShape=1;strokeColor=#000000;" parent="1" vertex="1">
          <mxGeometry x="564.5771766914622" y="-1009.0633562549021" width="92.89653939641445" height="96.03201444951522" as="geometry" />
        </mxCell>
        <mxCell id="CY8MMUGnLJXL2RhmMoPn-83" value="" style="shape=stencil(lVfLctswDPwaXTF8kzin6X9kJk6tqWtnHKdt/j5QNVQMxNxpbrK1S4LgYgFN8e5l//C8m4J7uZxPP3d/5sfLforfphDm4353ni/yNMX7Kd49nc67H+fT6/Fx/f38sCCXp1+n38sKf1ceVwpxYQX3tv4TMoX875/vK+EwH68IrRAnTWCKcUyomZomxEQF7FAicVOEFCi5MSH7/roTsqNYx4TI5KomNEp+TAiNIitCaRR4TPCNqg6pNvKI4KgWRWiNShsTEjmv8CzXAI4QyWWF986RA1kN5NhugHLkaXl1ja9UwPqOspYFJ6pAFo68Wd+TBwnaTrclVKSeED4YfKRYEL7o/FTulTHIT9Lx1wrrJvS3G14KKaALjs7iM8hn6tnY8IUyKJpMTgtUFI3uK1MxgvbUwH1lW/VNVgDnFbzOf2PKcH1zXywZg/F7U2ClK3aQz2jwjRrQv+yuzyv1xciDrMkJHuVf9MY2HqQ3MSBTjxnG72zjYIkQrm/rsUG9Sb0bfIJ6ED8xeA/9Tdzjk54dcOhgDVfqBTn6V/FMXht0KV3ht+Ov1lCyGC4SkPifjihVyshRmiXE2k34dsl88nRpnBWEJK3emMoiK2C64mmmC3jfO+1oXAm6zDKcJZYi1xvgLrnMT9XiQYqkCI0spO6Aawm+6PVD77O38WzLMvUAR/hiZEcN3NiHSW1lD8eUqylju7FAFZ+ADSH32Wh4BH1kmb6QUyw50jssZoAvzewg7u1BLxBVsNF1gs3jy2P4fxDk4WPqf5oPh/Wj4fq9/UqQv9YvjHj/Dg==);lineShape=1;strokeColor=#000000;" parent="1" vertex="1">
          <mxGeometry x="619.2727431295662" y="-1008.331816901966" width="33.996760716321475" height="8.36424275824074" as="geometry" />
        </mxCell>
        <mxCell id="CY8MMUGnLJXL2RhmMoPn-88" value="" style="shape=stencil(lVjbUhsxDP2avGpsy5btZ0r/gxlCyZQSJkAvf1+5qZdY3j0ZZnhYNjprHd3lHd+8Pt697HfBvb6djt/3vw73b487/rIL4fD8uD8d3vRpx7c7vnk4nvbfTsf35/vz/y93TbI9/Tj+bF/4fcY5UkT7c3/OL2qhFP+9+XqWfzo8X8h7qn6UF5KwLR/JpVE+kk/b8pmc+b6jwkAf19XtgCJUHQBESmUEBMy4kncDIGeqQKXAVMcTMpMrAFAtB8kkdRvAibiOgEAOkI6efB4ASSgIAAiV0W/JkQDSKZAfOURVEjg6ZWIDcP0TqwClmEbSHCkjQKYiA0AN7QGH5iYDYIoguHOxpH2GKhUmP4aGD90M64CJQ+7huypfvZVnyoCyZmMZjeq7DdblS4+zLu9g4NVKdYwj9VlG6ezsAZrhHjGu3eILQCiDwFMAT15GTlPO/9P9Io7gCVpCx2zTSI2IQ6E4Vj3O0EwNYNxcuyO3AKZixCtmLbYxKCCiSNKiKBaAKoYCZCoA0A+ZwsQho2CVKfgUgKJVe9nEAfUGBcSJA3sI4MmsDp/AJjSuBJ9MsVQpolhS0hMgYJWqswCHTlDHjQnEpbfILYDp0Q2AwjvbsaSphPPBFOJGGmccZwtIyNOaoskCMlYpjlZqoXElRad8QC23Fe85vLHj8pxAiHS2wdcA+IRZJdiwZEUlwTmdnAVEDODpBDSYNMCUDwWn6KcB0QRfxn6YczoSo1iaSqX2OEG1dRrftIsK9rSMHFqfRn6YRh+dBAIGZJNAvSVtcQ6GM1xNKk/5BttPqbbWF5htJZKY4ZBhM8nVtitf+ifWAdEOJkqBgUoyzUrs+ja0Doi9EyyABJt6KlRMxfDQC4l7ui8A6UqurzLFuiF5EnBCDHYw0V0lALPytCwJw6bOOmSPKkmBVgqpz4/LGqBrdACAZfZaANpB0eAttiHqrpKAWXVxCaMfdFepQKVis7PtKkCj1H9d5BNMf7aNoRUQdBFg51VdDFBY+N7ILuTx91Oy8sg+3jaFJg+iTmNotOfF7rQKcCsEUH3U2YAnwsBhzubZx2q2Ie8nB6D66KarpAqL17RJqryHfO3Vk6YM1N9VK49Gl89etV2X14ePe72Hw9PT+Vrw8nd7D6ivzneIfPsX);lineShape=1;strokeColor=#3399FF;" parent="1" vertex="1">
          <mxGeometry x="654.5240833588568" y="-1125.243151083157" width="91.14958592077151" height="109.58225162452594" as="geometry" />
        </mxCell>
        <mxCell id="CY8MMUGnLJXL2RhmMoPn-89" value="" style="shape=stencil(lVbZbhsxDPyafSV0i3pO0/8IEKde1LUDx+nx96W6kGvS1aB522NGosjhUEt8eNs/ve6W4N4u59PX3Y/1+bJf4qclhPW4353Xizwt8XGJDy+n8+7L+fR+fN7eX586sj99O33vK/zceC1TbJ0V3K/tS3QU3J8vnzfCYT3eEDiTc5qQKeQ5oSYqeofkqbU5oQSqRRGyo1bnBPnd/90Q+hLgDLGSY0WomXyaE4Ic0SsCF8pgh0JRJ6k1quAIiXKxeC4gIGo6nsaU/BzvKRt8pgxq4CjrjDY/qjjBO43nSh7E42wBOFAEBXBWQ7USg3x6qgafyDNQBAWd/yrnBfEkaknjJWMR6aFUi2+gvnwXTyAG8bex+xVfyAN9ekdRB8TSRGADf1cBlhxgQtIpYmkBIIlGJWvJRdj1Ingj0UoRrF9GQ920WAIpujrCwHvnhvVNNGQOLBs4UGNvNdSuKpn0ADubIAd70mtNMFMBFXPW2FkKEBA+Gc214XqT88Y70w0gfvFw02PYI5KVtPRYBT35UXwvmDbRIj0DAorRSjqJIsCoTCIArVGZrVCjbUQ8CN35gIYkhUYU3o/R8+8ui+TNGaCIRJNZZ1VkCNZv4iLO4FGTSY+YSSxFAyIVUzA2EaDP9Tlqz4sGpfR40Pg6RucMX3UXiFEy2ODGda6MNKb5bAuTUs/kgSi6EeqYREUF6FSSVHWRJUsVVVmmtamCmDVK093AlPkAdfTRe+x/EOTh77X5ZT0ctlv37X97zZZP2xU9Pv4G);lineShape=1;strokeColor=#3399FF;" parent="1" vertex="1">
          <mxGeometry x="717.7795611553402" y="-1125.5002868135944" width="22.861110708959288" height="8.292849181059802" as="geometry" />
        </mxCell>
        <mxCell id="CY8MMUGnLJXL2RhmMoPn-90" value="" style="shape=stencil(7VfLbhsxDPwaXwlJFCXxnKb/ESBObTS1A8d9/X25XWgbyt5JAxRFD72t1xpR5AxH3A3fPO/unrabFJ7Pp+PH7df9/Xm34XeblPaH3fa0P9vThm83fPNwPG0/nI6fD/fz76e7aeX09On4Zdrh24xrhXKeUCl8n99UJSk/37yfAY/7wwtAydTUAZpQkXUAZwrRAVQpgggpUNQR0Oo6IAqpjxBDoBAAIlL1WWujHNcBlTT59UIJBMhUql8fSDLImWLzRc1UwXlsN1+i2igAEpZyLOsDKVw/qKIwtQQKSs2fXyoFQFmm5PeXSEFR/dnnm0vfYY3g6APkRBUEMA0lz1jGFcqWghddJkGKUCp+faDa1teLUE7D+ggyLlbA4tYn2JZFRkljBRXt6S1NJlQBxTWOCSTpTrAK8CSbdSDO7EhlUEWmCDgoZeTMZIdILhc5mK6FIWvNA0qgBMxOLjpTzOwAz5aieJ6lEIPWNB0Hr2wJsDe5joadF7u8DjAh+Bw49UJfB5Rek0UaiTI6UutaXsTH0E+t24dusyIhP6pU2Qfo2rpOG1P2hocvHCN1MLzYN1i7ZUfhkaJbuY3niYkUGaq5mwdMHg6Ubd1ZPIAjpMAiDO1sMopAqKX2/RbAK6MIU/SkWfspYHkC5LcATKjDvdP4X5hdfC+8Prv4Kv2N2QXwfHV2ATX9P7v88dkljLeUGSyShNnXMC9b86PpokViL1Iz4IgAloNX6eR44EhNKfgjWaEToFnTaC9sygKOZ20iPgebRyIQhtbe6gtAO/fXAXohDZv6UO+Hy3EB27aFGGxbGjECtIv2sYkD2IuWkWrrTzTnKY9EVIuAmAu97AvArmvgGG/+qP0NgD38+oZ+2D8+zp/gL/8fv7nt1fy9zrc/AA==);lineShape=1;strokeColor=#3399FF;" parent="1" vertex="1">
          <mxGeometry x="713.4628540738677" y="-1123.825597885278" width="9.189559162726349" height="5.476318442753272" as="geometry" />
        </mxCell>
        <mxCell id="CY8MMUGnLJXL2RhmMoPn-91" value="" style="shape=stencil(rVnbTlwxDPyafbWSODc/0/Y/kICyKgUE9Pb3dbpKOHH2zAqpb1vqOSdxZuxxzoGvXu+vn28Pwb2+vTx9u/11vHm7P/CnQwjHx/vbl+Ob/jrw5wNf3T293H59efrxeHP69/N1i2y/vj/9bE/4fcI5Cq6Bgvtz+oNUSuHfX76c4h+Oj5t4TyHN8YWc7McHSiY+Uaz78ZGCn+OZOO/HZ2IT7yj7/fhKdV5PLfD53lPJM4CpOACIJDOgCAnYsa89IQOQyQOA5tQbQKAAzkyT5MIEyJU8SFIQqvMeMpOkfQAzZZkASXrezgM06waQKDPghSc/7yF5ymBJUc+hTIBYKKE3VCpxBjDFuA9IC7dZKAJqJD3XeUmsYgAHl8bzBsB3/p5XQyCe96CEL0CeOVKd06pk8QiQSWbBqWQdyJJSLc9sbfwFbyiuF5QBcJRAWou3WfLSCX8eEHqJG4BCFb2BKc1L8pkKOIeiZJ4FpGUBHZxKXsySGNaxUrvkB0CLQAEAsWXGOxKgh+rswamkUWUNthQXEnDOWkfTzNUMO0+NlGb14E5Sky31EcpZG4Gb18P4+UNZg6ewE2pjMiVPSxqghGjn4Sne9d54Pp5tp1IhAVJrI87FrL+C/Uq2bSdBPmh8NdYCElSNRJzXoxJglFCVwJwglXFGO6i2rekRCNqCdG8wAAmWUwWYPtgMByCdd+OQBusCZYDQV5i+pgDBgGp4zdAutE0sAKScliaxgIQOQrr92ABQ928nFz70hmqLRdsDfgPXJUuIG8q+vJwDfoOhaztpdA4KEAtgDIjRAhxwYQowbar5C6TR2re4ASCfpydt2lQDYC5FWZaE0iq2TLZNo7qnAloUF1Ahlt7HNoB0QaILAFWBJtFFQP7Cphc9MFZcXOid8KbNYNgkiskny5KQg2nkSxYQcb2PbAHhQoNY0uo+KtHynwF+Tqt2RSjR0qfNjUG/ALBvUHoj8ukIPZ+Dx9OhGgdrZBiaW4mWfIKdBne//+4MI9ryYs8DnLjVWcm8Hh1hUNVz1qlGKOeq/XBmReq2YM95mpkqd2t2Pn6k491pw+cn69wqzH+N1gkLdBjq/I3OvIfFpXrLUR1e0KWKDi/GS3o8dZalVng8apdip04d8ZCZ1BHPTmwFXkjoEFnnU9YxNaA3hO6JNoMwuqvSQTgs/hYRI4+JbgC4F4PzgGIblVLbg7TmZDetXA3oPo+tdlqxAGLIrp/r1oehW5jSrx8GIPfJ4zyA7T1PdPgOU/rlwABEeIMR03JXVWHvjGG5DQvdEZy/b6s2SwnTm6N1GJpo5MPY9ZoyAAk2WyWCm7OkdESOO7D1kiop5IdVX+bgVOXIMKjkTRHQSuXQ3W2wl71aOwvgknd28qkV9rZiHbpg/5xszdDmm8CW2TKvje3g+cHOhm1wAhXDWzv/PiLvxJsLzOaNAYu0k2Qbj3qVswe2mcB3AOWjgLSuCGTI2cFTxu37TrxRgeB7OWd7rcaj6cV11W7iGccvz0ctwdmPEW1ygOs3mtR45BU++kXrcrz+eP98dnd8eDh9fdv+v/3cpn86farjz38B);lineShape=1;strokeColor=#3399FF;" parent="1" vertex="1">
          <mxGeometry x="83.0571852702003" y="-1195.9897234437497" width="98.54519986891117" height="92.26192220506694" as="geometry" />
        </mxCell>
        <mxCell id="CY8MMUGnLJXL2RhmMoPn-92" value="" style="shape=stencil(lVfLctswDPwaXTEgwec5Tf8jM3FqT10747ivvy9Ula4BW5vJTaZ3RQBcYKlJHt62T6+bKfLb+XT8uvm5ez5vJ/k0xbg7bDen3VmfJnmc5OHleNp8OR2/H56X369PM3J++nb8Mb/h18LrjbjMrMi/l5Uo1Orflc8LYb87XBOYQjQEYWppndACRUfoFAGhMhU2hKSEsk7IjardoTD1sE5ImYpNugZKbZ0gQsGG1C5B3iXEOFK8EBoFsEMQEjGELhQBIVIOBh+YiUFIgWq1G3SqGeG5W3wjAUVlyi6BTE0QPmSL15RAwpfsriraOsTb+FseO67gky2oChfVRyVm862dGNYz23hqHUe+csBiRV3LOMH7GvWNrO9PEeFr8PFHEE+i6OoTod6SF6jWP4G2T74+rVMA55tGdlf6aWBKJGKHL6NiK/VJTp+NEsBHqrb+2l8N9Eu8iadTB+cbSNjHg4acDqju860gfqbo8lWFwP718WtHg/NVvO2XVkhgv/8bf1d6a0DPTNVOXNVzg/0oN/1S4cBlG4/2I4rno/gQh+9eCLqCPCZQsYRSh6/dV/SNZ2SVHGrJ7Gdu5rHnfSeu1C1B8A5FPciqNFY41dV3xZY16BgFx6xTxOuIArrf1DF1Bp6hcSve+Sq24dlFxeEzkIXim+1LtSX0/u7nhA4yUFDFu7tQhjYzTynnw8M478uab4w76I3wnR1sRUPCR9ZHn1wIBapOCdkROiUw65Tg7n96CrCqjYpttdmfsSw+eA9/n6AP/6/9L7v9fvlquP7ffybo0vKJIY9/AA==);lineShape=1;strokeColor=#3399FF;" parent="1" vertex="1">
          <mxGeometry x="140.28388704709505" y="-1195.599439488433" width="34.64866815081627" height="6.833013896602501" as="geometry" />
        </mxCell>
        <mxCell id="CY8MMUGnLJXL2RhmMoPn-95" value="" style="shape=stencil(rVjJbttADP0aXwnOPjyn6X8EiNMYdePASbr8fam6I2s40jMK9GZLfOL2uMzswt3b88Prfuf57f18+rr/cXh8f96FTzvvDy/P+/PhXX/twv0u3D2dzvsv59PHy+Pl/+vDJDn9+nb6Pn3h5wXnqcoE8vzr8oDJpz8PPl/Ej4eXhXihUDtxT9lviztPIXXyiQR83lVK/fcdU3TbAP3e39czIFGJ24CgBvcWqQuMAELCPaCSyDYgZiqhA4RMAWhIalLsADG0rKwDCqUekBwxbwOyo9RnWT+B8pAjSa9Bn8QAAIVKn4fCLfXrAGkGzIBMXADzHEkf1oqdLsGGtSZyIA8lNQNmwEzHdUAm7zuAuPZkHVAaN2eA8hdpqI05M0DJkrcBU0xMlIQ8cLpG4mSjFEDF1WKdnnSCTAtT7gtI44aclkDJADw5QA0Z8qB0FOCDAoxJCoig4qQ05iwADvmgmc4WgNqMVNvIJgDItAjxAECtWwFpACB6K6D21Mi1sWu9ezO3ilwgEvJahj4jsAsoIBcLSNhrP2gQnAijQTuZQ9yotuQU4DGZggwATNfqBh9wQYQ8RAmZpL23WoDDJq1kGmtwwQJgprVJDBWEdg0FmIkyFQTSMIzRqeQQoDYiLAGgIBRQh8YEO5kMiSstDFuAsc9UrEGKzUO4AagWIGDuTiYNXIr/FVAaN+cCClQQNWIbaTOg4pp2jTnzkPNwotShfde5ytcByW4nqjMBLtVgtxPdHVCJVrZdQ/BU1LEsdvnmWyuWaX3XUbwO8K3RLfYZjzQ42yt1n4loTZx772KfQeu6srkOe2UFPmTtxn3JaeBQyenqnPu4Tl7hdd1OxQS7QNKZ1fuQdIyiE8Rgkh5C0NYXxTodEzzUxGjpGkqj1/o5q9hVN3DrC+sAHcu9ST6QgCjpazOzXGklsr7PDHulnmczXICsBu2tgErJ7ib6AHyeLVM9FcA7bivtVRw1GG66r+LYGO6j7+CZdYgM7nZsTyUOzk1uTeR6i4FKWCOTjHiC4mY+MdwrZlOv4g5Uu7NnEW6L/TqLbWRwi/aWBNw2vQ3xf7oOuimuP643T0+H4/FycbV8b2+q9NHllivc/wY=);lineShape=1;strokeColor=#000000;" parent="1" vertex="1">
          <mxGeometry x="37.75618702863471" y="-1186.6839335432396" width="43.02389841967548" height="52.793892137536254" as="geometry" />
        </mxCell>
        <mxCell id="CY8MMUGnLJXL2RhmMoPn-109" value="" style="shape=stencil(lVfLctswDPwaXTEkwRfOafofmYlTe+raGcfp4+8LVaVtgtZmcpPlBUlgd0Fo4oe37dPrZgru7Xw6ft/82j2ftxN/mULYHbab0+6sTxM/Tvzwcjxtvp2O74fn5ffr04ycn34cf84r/F7iHBU/BwX3Z3khTCn9e/N1we93hxt8oRw7fGWqbh3vC/nQBZRAntcDgtgTJaEg6wGRKfY7xEy+rAekQtznwLpEBjk7qqkLCIGyXw+ogULuArxWCewgjkKfdKEUAD5TMTRQrfBAlXuaKQDWcrEZC1VUUkfOJOyaUO4GaMX/c3oJ8BRBBqqjYnYI5FBApuzsDgKU7ROlOBwJBUTK8pmkNcDbqmbkHSYphuUPDuR7vCodrR+p9M7JFADLc4Vqb02KCJ9ts4gkwMnKcfUGj1TnayP0eh7UWryM+IJakTZHZ+qTEd4Pva4VeBXf11NdDOqj56mDyxzoQxoQnA0QVFEZGpenjCkwkp5tiTyQSeoQgEhLTQO3R8IukDgkjW1pepHgInFT8Q1teH3THAuuaaRkZZeQbZIlLTXdrlEQisF7oCK1ZRxsCS6zz+JZL6feNgzbRJRWjst1TAUIQi8zK2qKgC+9LGOPV5eBeorSafGQL3dZ7yogJFCJtu+qBBnNH5nYuFKaT+9POMl2LtUoar1ZTWs4q5SAjWO1Q1fyFNCEoDbuq5pjW+J+s+M2D1xsltvUs+r7PoeqhwQjRWm376VPVJiCDmli8QLWT/a6F2kjyQreJYtH98fQh26UeJ8DW9F5A5BAGOYbgWOst5qYCwQ6hbMD10wA8IFef2bqLVBCgy91zmbgghGfiAEBeh5Tn0gRKPSzH2cf4/Xh+iX4stvvlw/J2//tl6O+Wr46+fEv);lineShape=1;strokeColor=#000000;" parent="1" vertex="1">
          <mxGeometry x="-139.90034098475417" y="-771.5500119469773" width="30.88404813953075" height="30.938855195753057" as="geometry" />
        </mxCell>
        <mxCell id="CY8MMUGnLJXL2RhmMoPn-110" value="" style="shape=stencil(nVbLUiMxDPyauapsyc8zsP9BFYFMERIqZHn8PQqDAWsmnV1uE0dtW61uyYNcPK2vH1cDu6fDfne/ehlvDutBLgfmcbte7ceDfg1yNcjF7W6/utvv/m5vpt+P18fI49fD7vm4w+uEq5kSH1Hs3qaVTDl9LPyZ4jfjto+v0sX7Qi4CQCXfAyRSqqcB3jlyrkNEIcngiELJd4DEFAMAJJLYJ+0pgztV13JsgOIgICugv1INVMppQBJ7JWWaAa/KSe1ZUhoqOCEwpb4QWpoCchBNkS3g88zlylUKsxMcAOh2YZYzSEGIxZL6qcbFeC2CSYDJg/2dZahUEqCjaItcEpY2t7+/AIEinwYwN9F8AYQcuJEECuYEpgBOCGoFsYAMADGTj/ZK1QNlRyqGJV0BdlYvBgMoJKBsWb2T+jp78sidekK2QkJC1RyqUVKChVOWZObOgNyp+5mGUaGWtNKpl8aPxrksJrFNTI8QLNdi/Jah3yJ5k0OkDCqtfjNlEPKA1dlg0L6M+4XvdVEyRXB/mUk7wzmiCbMZnq5VZRlQrY7OjDbtwaVP+cz0FLYcnZnPCpC+aPgBINqEe1IjniLJqi60B8GyEVwzVovXWQ4YUuOYbuFbRzs1N6X3jaMA+EmenJh42CqKncs4PqcmsX+7j3bb+D/56ggz/CifQKJqQTNycL20ERoTYz384sF5Jl4/vl+3t+NmMz2Of/5vX8O6NL2k5eod);lineShape=1;strokeColor=#000000;" parent="1" vertex="1">
          <mxGeometry x="-112.67203721172109" y="-771.1326949696843" width="5.344791602553596" height="22.338901601715406" as="geometry" />
        </mxCell>
        <mxCell id="CY8MMUGnLJXL2RhmMoPn-114" value="" style="shape=stencil(7VjJbhsxDP0aXwlql85p+h8B4jRG0zhw3O3vS9WY8ZDyPNe3HgL04E74RIrLI8VNuHt/fnjbbjy/Hw/7r9ufu8fj8yZ82ni/e33eHnZH+bUJ95tw97Q/bL8c9t9fH0//f3vokv3Xt/2PfsKvE45JEP0f/z59aJVS/vvl80n+Zfe6kI+Ui5ZPFHldvpB3Wt6TB+c3ytqeWqm2dXnnKDcNiFQrAARqrAClUfMAkMkFDYiT0y4DCrWoAFm+gDu7Rkk7NTtidOlGNStAisQgCl2D9lLMk98uAyplrSHUSefapVlfOjgYaJco6UhLbnGBgfNag+hMEaYG68A5DwPXyOsw1OmAldQO+vgIoyxppPPOUwGnJ2pJG08B2J6JsxFnKJ50WTI0pljPMEUQqkqBjTiu+RSNuEPJzNSCkWcH5D0Faz0slkClWnmcydys/ai2suVEpoAYq4znZ8w/pnZ5orxVvtLhksoF8hLerO2X1E7r8qFNhLyoQwcu3MnMAOQIkJ5ZEk5nUC9d4KIqHtEaQqIMNDRxiS7HKI0HXLo12yiFcR2KGs9ZuUBEZJM4JVpAwTaZxIsza18GVHLFAjyIXMuDSQXfIdnIdQDSEG7V4CnxTXdwFNPgJeRWpuqGOCC+k/odAhdRHHjqLMtkwulajIZEFd3BT1PWApCRSTIDDYCEmmsavJSmyFwGDE2nAwCv9sk1WEABbUrqwUY6Q9oQQBsCh7pyBwwartBGHGijIcA8ri/TG3RDcWsYSCAgt86Z868lGofBSACoHvw0gC9NQsnnpvpaANyVAhrcisbZmwHV25knyhcQuOKo6ksHnEup2p4lTQ7RTIwTqcwAhskng5gZfGQUgpPP8NIpmJaGK8O8+BiBP0bg/3MEFvubtl+mjCv2G4aDySbPbzNuFsg+PTz6fIk4mln8vIVZPKZRFxCDk2GfMPHRZcA87i4WAg5UjFyx6Bj3lQNI6k5/2qTeXJFJzZrUXxogjUSDaUzZwbz28yw6AypcagjHVbONirASxOuGQyumCslk08lqgsulXoqai6q8G1CyFuslaegZbXKibRstY3phO2yenzIrdFqKlYcTiH16nZ9vK+w+ylcwf2Q7Qp0Hw5XOlw0dMSbsaGPWFYAgB1sJXR7Vml2ltQZHa2d3piKPCJLt2CvyaHpiuyEQeZTUw9ta5ma0Ubh1LX5dXn6cd/BPu5eX0wp/+Xe7s5dPp31/uP8D);lineShape=1;strokeColor=#3399FF;" parent="1" vertex="1">
          <mxGeometry x="-110.36905372733781" y="-885.3639702068463" width="22.24500510589896" height="104.97221671352308" as="geometry" />
        </mxCell>
        <mxCell id="CY8MMUGnLJXL2RhmMoPn-115" value="" style="shape=stencil(lVbZctswDPwavWJAghee0/Q/MhOn9tS1M457/X3hqkpEMNpO3ihql8S1ACe5e9k/PO+myC/Xy/nr7ufh8bqf5NMU4+G0310OV1tNcj/J3dP5svtyOX8/Pc7fzw835G317fzjdsKvmadKJd5YkX/PO4mk/N34POOPh9MK35RUOnzIFAChVgrcEaJSrNuEEki0t8iOiNuElElCRyiZctomCFPrfW6RCm8TQqPaE7RSzYBQKfcmaaMigJAplZ6gJMCHEKmqJzQQJaVa+7wxEwOny+CzXQDyJqSDBwnFaHCgLSa+i2dKQw40IDz3dadlsXADn5vHMzg/Ejv7TQgNlClJnwBNlEFJWNGrxwcUT6ZYPIFBQINQTJ4gSAaZmngCqjmTQS0+RhmZ1IYbCiVMUCe0SgkJrS1JXZWdoLAWioMOArpBqIonFIWJG6WswOn6jjIVuJCGoL42/Y3KTgOeAZ59a7GQRqxMd36lCJTDy99VUQi0J9aP4K2XuhS3QAwMst7oIlQE9pYUl/NeZ5oJAUgtW0T6GyzrGdxQ1PtgdYiEUBuFXv0RXlDV462Bgxg1q4rg8AF4bCP430Rd8AztaXnphm941H5b9VWKx5/yMr1WeDRfhTg5fATxt04ozeELGPimEckunkhkOrTSAMelady1LUsIGgY8DFiB8+yjL83/423x9qx9OhyP86t4/d8/g21rfkLL/R8=);lineShape=1;strokeColor=#3399FF;" parent="1" vertex="1">
          <mxGeometry x="-115.66646338932628" y="-882.6036341990189" width="10.875901070678264" height="34.80790470161228" as="geometry" />
        </mxCell>
        <mxCell id="CY8MMUGnLJXL2RhmMoPn-123" value="" style="shape=stencil(7VnLbhsxDPwaXwmJelA6p+l/BIjTGE3jwHH6+Ptya2izonbHyLFAbq7DsUQOh6TYXbh5fbx72e/YvZ5Px+/7X4f78+MufNkxH54f96fDWT/twu0u3DwcT/tvp+Pb8/3l3y93k+X06cfx5/QLvy84pugnELs/ly8cefn3xdeL+dPheWGeqObO3FPO2+beE6fOPlIswL60n2v2hWrdtmehXPv7JPJxGxAUIB1AI5DBCVGo9AEKHkdIiHsXQm1BWwXkZK8UC8W0DRAm6YOaMjHwQYao5gCdLoFSf4I4eEIRiq4HZHKAhzr/3ky0o8oAwBQMIFIKABCo9sRNlwTE1dRuPAOUOHRCotKHVS/pESBbp2ukAOSggGoAQgn5IMMJhQK6kgKKBaDUUIDvU6NWzHS2PCggAD0oIA0nZBxWzxZQMHF5ACCJKsD36e2dI+cAQpOzDEcAUSvA1cEJJIhgRT2FyUNAGIlAzAVyYgEOa7Qa5kqrbVsneON0btRsAdgwF8kj5kIrEjPAteq5xYMtTBm2rCk3eqaLp4JOyDaZRFrGbyrIAAJFFCWxlUwBDos69FHSHlNQegvJAMgIUIi9BUR0pULCHwJUm0vTlZAeKqUBABWnghQbVg9OWBSJJXOIai0SwxGCvZY++yTCOykgRguAPUg17y0ApmuhNACgqMvaCehKqpdsARF3OZsbsX2zKblseSi4U5dqAelKWxyYZiy5UUEFi3rMbzSsTzwkC0gol8owJjKulXUoTNyo3MxWsQBBYa1NLsvSh/Uw8oAmpnVRZ/So+TBiaswmsPoMQW5rnzWzK+MyMHCtbU5wT5HeB22k8EpiC/jUWq8k+Ofs+jm7/i+zK9vFgKZXRWHlITeu9EVuU97ifQmTybcn9EKjCZ3gbfaV0rJl/Z1f7ZO3JGJwJX1ziwF46IO+6o3kJENB6O95A/BN5uvbkGx3UjnC5BNnd2RJ4DYka7aajU6FPKRkJ6DoYfmOQxUI8yJvfe+VbPKxihaElVOjaS4buc0T610uW017h+fEVklnGtqAs+5y27rNHsMZ0dnuo9qA5tF429S9Yc6mpsLXj9ZbuzUNoLQM4wJOBteIfF/hovenaw/md3N892DNA0gDZ9PGQVadnbPVGTRK2Xeqg8OdtzMLbnxse4ZrQ9KG+YdW51fN9cP7lv7h8PR0WfIv/263+vrV5X8Ewu1f);lineShape=1;strokeColor=#000000;" parent="1" vertex="1">
          <mxGeometry x="-633.1995432033332" y="-924.4031066595485" width="63.43301269972001" height="92.19990167858762" as="geometry" />
        </mxCell>
        <mxCell id="CY8MMUGnLJXL2RhmMoPn-124" value="" style="shape=stencil(lVfbchoxDP2afdXYkmVbz2n6H5kJKUxpyBB6+/uKwlIs2DPN27LoSLJ0pLOe5OF9/fS2mji9H/a7r6ufm+fDepJPE/Pmdb3abw7+NMnjJA8vu/3qy373/fX59Pvt6Wh5fPq2+3H08OuEs0xajyhOv89vOtX2983nE2C7eb0CNKNWBkCvVGUZUDt1HgBNyABAjUoaAJVJDQDynPEMUKGclgFFqYwp+Zvzqe4CxA9tIyCRKAAIdR0AopRAStyIxzOIR+jLgGxkY0qsVCsACKWx05yogU5zrKp7UGCfiUf/OZOBGvn5RiLZXLMF8zSyopGCgibiPnKCMiBdphz6hdtFOhIokwDvhXj07tkBQteYTILJdEoSzAtgjlHtIfeKiJbISigNcp9z9O+8BId1+57HhUIJ+5dQe2cSCpDiaGWGgE4tENmnGRC/kgX7AleobwKN9g30V4g55mNwEGODna5wsrTHgqJ962wMCkACJzGP6StZRuZ9nHOBxWRKcRLPcrNQyxpHS8HSVNIczBPIvUVdceoBWTHKgZjEwLub1w+Y5x41qMON6YeNC9wnHakixwAeEsmoi2aI4JuxIqGuxONqc1VEEZTnLX8BeE9AkbRHWfFPAcTmqjfCUuYFdp8TJepoxQuxO+nGM7Q2d/4+L1rc0L3PdbsPuGWGQf0yi3pnCYqGA2wcHPPOQJW50XeTeQ8vhQjfZKazMiwBQuesUkOH6HH67SK1S40InfOYEFDnb7wrAOKGaeT3VeHuIy7adRXCUJk4rkgHFLCBP3yF+A+AP/y7sbxsttvThef6/3jD8Ven25E8/gE=);lineShape=1;strokeColor=#000000;" parent="1" vertex="1">
          <mxGeometry x="-593.9848398271257" y="-851.5335976907709" width="24.87740442452252" height="19.906933163419094" as="geometry" />
        </mxCell>
        <mxCell id="CY8MMUGnLJXL2RhmMoPn-130" value="" style="shape=stencil(lVjJUlsxEPwaX6e0L2dC/oMqILhCMGXI9vcZxaWH1bLaxc2YaUuz9fRo52/enu5eH3bOvL0fD98ffu/v3592/svOuf3L08Nx/66fdv52528eD8eHb8fDz5f709+vd82yffpx+NV+4c8JZyTaBnLm7+mL6sSb/998Pdk/71/O7J04sDdi09o+SAmDfclS49q+SHGjfZRS1/Y2iKsjwFOAs2IA4CQVAtAreQRYcoLPGCMFGBLTECWB01aqXwOil1gREN0akIzkNAKMVJK2lKY8GPFhDchW8gjIVTJxOkeJGQGB+JCLhAngLSklIykgwLHa0+IGgJ5JMq2lFswIyBJJ4rSYw1gaWauVXSlJGhOXtZbYCUVMGQFGAjuhShrDmjSspB/q1EBJo0RqqTHK6HTKPfeXAUHs6IOWo2WA1PtrA8Qet8uA3Ft+AwTug7IQ+OCksCgpL40nxELz0KI0NlBUEmDFp4kbeSkEXhqp01YH+NBzv+oHyIOLnXgut2iWPF7JZvEM4HvLbwAlMhIlrc0I80Qc5zEkDXGMKANWUubE6rEu1GF2H4+clPqAXNnDfE40x2ofxgxEOnqa/fj76hC/fxjv73rKl/cf7e01e2AjnVOkRNNGnx/2NF9bi3zYB3afgLNcJymZOWrvM/jLxmajHWgxcfw+cfTX0xk423Oea/Zj/WvHc3sPw4BOzBZPGLFiWb9rvmD+8d/XesB+Z6yr9hn73XB7iGcSf6UfI8TzCj9AP24BW9qPBOrF8n6H/Kqc4L8P0tRS7dviOdaD6VNqZV+x35kI/LR96nrsw57yYcV6UP5hotSjkNCCJXylghLEU+26eTWCYV7oRE0MkCSPBacV6ph2MrhAqSpgC1T13cPNZduTvtJO4HNIdMirnIMkREOFey1Sx66JqpsJwBozKcZEG61WHKw5UGZXiVmn3YBJlSZix1ZrxUJSXafVV08oLNUOh02+otxtD/vZBsXoQjVpmQCZAUqnw7M9kyl3re86rb5sVy6TctetjS0TJaAEad8QqV8mTm1n8qbGN4solZ1gejVvgETz0PJaJgA5IcfpRSF15bPc9wMC6GROF16C2MtRe7PICCiEu6NyMeSh0E32wrtLoWrcb8vDGYA9o7gyOV2pvmvj1SOgEIAN2EDatLS8e7ds9p4qkoiCWemcUatDwaPkzBSDwTpSpq0kBwYL9YzLF4AwHcAiavr755k9k5AGl2R1mLGwmRSABog6jAnI/WlhZQ/3TzTBag8vupGuRKYL5M0+0DcvgxWtBcdWQIMbQhMc9P6wcemYizQ+n3vxvm6vHz6e1x/3z8+n1/nz/+NzvH51esr3t/8A);lineShape=1;strokeColor=#3399FF;" parent="1" vertex="1">
          <mxGeometry x="-533.1367240701813" y="-813.381751058015" width="126.06316693542747" height="20.415248633623598" as="geometry" />
        </mxCell>
        <mxCell id="CY8MMUGnLJXL2RhmMoPn-131" value="" style="shape=stencil(lVbLbttADPwaXQmS+z6n6X8EiFMbde3Acdrm70NVke2loilyk+XhijucITmEu5ftw/NmUH45n44/N392j+ftEL4NqrvDdnPane1pCPdDuHs6njY/TsfXw+P0+/lhRI5Pv46/xxP+TnGtUmtjlPLbxxuS9O/F9wm/3x1u8UoxdnjBAVVJchcQmLKuB+RKUruAGKiBgMRUtAtIjTisBwSl3KdUIoW2HiCZSp9SLVQr+AIl7kltlMo6XqlEj2/gfKGWFnhwYyEVj4+AUquQy7/ON1rBu5K1Qgruy8Tu/EQV40uPjxTBfXku5wUfSAThP9i74JU4Ij5zr7gmFADeTMMez1A/nk+rIBBomNV4g2/AlNGb2O6L9Ba9/o1/hXifT5o9una+47OQgPqaXV29KjRwoOLwDdYrLPRp/gL6V+8v4YvEVwQUFwbOICFrcc1fuIICmwHYE1qgAdgRlCnA89kVLEKCmLTvuGbIBBuQL5hSyIjP4BqEUIIN8Yv4SLkvQGmQUBtyqbdYziSAoVhnQi5TzLow+EJOfmiENKvq0wDL2Ili1C1IqZrGnKxlbkyfLwfJ0yrwA4Zv/RUYqsJEmZrDo7Z+nUJXPHKl4Rf5CGgr41T052cwxszkoo6fiPKxraG3DXaB4avbtSiiNYIXg9g6MU6o9Y09wTkzJtSfX/B2aWtJf4FKCtril7fX/+Lt4boqP+32+2nTvv3fr9b2alrLw/07);lineShape=1;strokeColor=#3399FF;" parent="1" vertex="1">
          <mxGeometry x="-436.95809263904675" y="-800.6483930345039" width="29.0173562460511" height="15.871960421917375" as="geometry" />
        </mxCell>
        <mxCell id="CY8MMUGnLJXL2RhmMoPn-134" value="" style="shape=stencil(7VnJbhsxDP0aXwlKorZzmv5HgDiN0TQOknT7+1I1ZFuU5019LJCbPeYzRfJxEWcTbt4e7162G89v76/7r9ufu/v3x034tPF+9/y4fd2966dNuN2Em4f96/bL6/778/3h+8tdk2yfvu1/tH/4dcA5Ym4gz78PD5jY/33w+SD+tHs+E/eUsxEPaVlcrLiqq8vimcIo7knisrhjKnGQFxIH5CN5GeQzPL0al8p4fEceATKxsTeRk2VAkO6Po8WOMgCIo2QAmTKwWSrlMABUp4RlQMwkaXSqo1CWAUko+hFQut8uR5kpjpyLiQKwIWvcRg0pQC/lSn40OmvgAJOKp2KYUaCXSiIeqVeEKgIUy9XK0Gj9uboRIORB8lRPfnRrTVQBW2uwNtRCAdigAAkWkLEGE2kFVBCHBjAaKrkVgLOAgAEiFhABlxQQpiOhjFOAKxZQ8JFMDVYA9JKydQQ45v4fS4h0NUKuPZRJ0mY2IocnTpNjEf1cP8B56LCGaGKdYGXSSHhzJCGHvKS1dCzHLauRDZHKCNBKAjVk66VyjMxlQCE2ta/2rrQEkJGvOcHqqoCYLSCijNAq4S0ggCmjVQmxAIdqX7U51wAoDtWWsgZA9K6UogWgWaCxf7JBkNG1V+szQAJxOEvhM0TBbrIqMpxPTpXrDIBGpuambAFxJRCTBmS1AkybawDM7zprwOzLMtmAUy6WyUs4IWzKaZqjwlTsUNYijdxabCNtOYqooTPbpAGNfQooE8BjfruJrSvkC1PKrQBsHPRIKA7acCbACr3rVMkiIp8CqgUUfKQ6U2PlSNcCbMbV3sUWuTQG7jQuL/Usc4/TJhcRl5LtWdpGC+KS2DjoEzjF6ew8HkkP6fDo+jHr+o9Z97+ZdZ2t3wqALYUnDRlqKNVuQ+rKlVfbrOErwwupXqHLCCiRIrq2OxvqNusCDXqrtxOT69fsywAhHlOorTsAl1K1XIq558hlwJTVUnsoLy9o0rRv8T3PL6+ASq+lxxVQhDOZsI2DLzCrQ+jT+RGgaQuM9snWDZfhjcBVeyTnYRycTD0ITomO7eouwh6XLPMElhixs4+H/c3Pi1C0N+U+MZ/WrAnEl+0A4GDiM3kTK7iV5d7ETuJoFma7hHLw4jZdebhfFf9VHF1t2WY7w/rD/ahn23DAMbbbBYYDM/fr4kkcbQrYVlvuQ9WCeLGeQQS+8j3Bqrh+OL2SeNg9PR3eaJz/bl9h6KPD649w+wc=);lineShape=1;strokeColor=#000000;" parent="1" vertex="1">
          <mxGeometry x="-660.7309364546649" y="-1209.4200672984766" width="82.38111687723553" height="82.12032394860788" as="geometry" />
        </mxCell>
        <mxCell id="CY8MMUGnLJXL2RhmMoPn-135" value="" style="shape=stencil(lVbLUhtBDPyavapmRvPSmZD/oAqDt3Bsypgk/D3abBYs2dsJt/VYPdK01JIGvnnZ3j1vhhReTsfD0+bXeH/aDvxtSGncbzfH8aRfA98OfPNwOG4ej4fX/f38+/luspy+fhx+Tjf8nnFSqOUJlcLb3xOhJH9Ovs+A3bg/A3ShJhbAlAIAMNVkAL0R93VAqxSth6Y+6zqgFuoWUIVCXAeURLkZQCkU0zqANSTLEncSwFLs1K2HxJQBS5FytCRRBveHhZAPiqg2ZJ66JYgKeG6gwJYeiuUL5kwNsH8RTCLO8KmWybiUxxqRNpgAiy35WtPHgDQlku7Nwe1KRHLmFfCeiZN7agF1n6mxI7KD2DNJMOaZEkhTpm4rslAFRZC9pCoJiJ1JbOwd8q4txptXmNWcnbmAp0aq1d8O1SRefKgXBC9tZQbWe+ied6xVn1Ukj0DR9SVqgMhAxQajFQlij5dqqpB38VpFakqXasI1k30wDJhRcy9tZK7BuzzFQgnNkE7FUs9hmb3Xp1ShYOssV6oAULVsbS1UTTdgSOeq89C0OQORd50bNmOtLSdXAaItyQ1/pg5yLN1vC6L6AbTquhLtG0SrEHkQX9MaJBpvCnCzfNp4gIcYLkQpGY5zdSHORVma+xrATUXRroJpyo5X3LU0EeIWw/6vzLFLhODaaF7PEw2gXSgg2JDOmL6OqFdiaujVX12H/wOgH5/b98O4283L+/n/flvXo3nT59t3);lineShape=1;strokeColor=#000000;" parent="1" vertex="1">
          <mxGeometry x="-609.0128608939916" y="-1141.571211925917" width="24.621896423480003" height="13.523990550839049" as="geometry" />
        </mxCell>
        <mxCell id="CY8MMUGnLJXL2RhmMoPn-136" value="" style="shape=stencil(lVlJchsxDHyNrijuy9lJ/uEqy7EqjuWSne33AaNgNATFHvkmadBDEmgATWjn796e7l/3O2fe3k/Hb/tfh4f3p53/tHPu8PK0Px3e+dPOf975u8fjaf/1dPzx8nD+/nrfLNun78ef7Q2/zzhD3jaQM3/OP1RHwf/75cvZ/vnwsrK3FFJnXzLFOLd3VHxv7ynUuX2Q1Rd7Qxa8P1Hs958zmTK3r2Rybx/weR0Z1wMcJQcAkULsAZYiWqGSDRpgAcB5MkYD/v9yHcAuUVsyVPMc4O3gJQYAr/ooO75xS76SKwPAAl54yoOXClghFCoK4MkDQAzkVKQjpGqslAfu1QS4Goc48CuAW1OlorKN4xDmACaz7d1aLKR327HTgARW4A2UYYUMVuB8V4duKwC3lkDJa4BHK0Tx+tpLIA5cssYikwE1SqVoNKCAIlCHqsFnMODQNVAeAA4BhpzeiHQtQubVGTyINK9Qh0LmECDpFThD4Bkipd6t0UktnHlJxSEE6V/XAV42IACfIZc4cLbnknfkQamsVtqTABw7GlCDuVT6qsH1PCHyFR0HWyTLZ/ROfeWz3IEwwPdeskbcMAOoUlkgldje9v0kwbC19/cJGiCRxgOwiNnwkHKpNLyZvaowRhwwC5lSVQZ2Q7ZX+zEiIm6lBEXMOeV/TxbXO68SEzbnZq9aJxnEn6r5w7IM8Ycf93xggsKmUygrB1moeMqStAsAyzwGKInUAJjTechK1Mtbl0r60LBxctb0WypQtI1ZmTFL2b7PsiA0nGZlHzWPo7zcJC6s3sjiMmQNJoXa/2ZWxqDsHX6/UmsWZ9kH7evyeLEPUKtxM3N9GeK7RkAAbpf9jjhkiKOtIfchdljRcstX8rE1ZEAiViG2P0OIsF022aJUiBNtNRNGZZAtFV3YjBkuYA5e8erQ81mzOqQqyqCBsaq4IgeLePpWwVlFs94qaavQ61bRXLfyWcvyipVR1G2wNSKUoePVouASNl5euCigzsb3gqwBKOXaBcxqAEqIdsVLGgAnJCP5WP6ga2qQtrEAkoRydhHWbmVHg0jzVVuNPIqDgoov83m4vCDF1sYFKkUL5NKVgcTSXm4deWQpJLcOVTIsrhcRtTqD2RgMWQ2wYEt20IUMiCCnbdT1PldIPhZFeiBh4LywCvlXzMhw/qfnF1ESajJfHEsGqsReF7FWB9GsTSvnikXSMhZY7HEJW+Y/K3vUcI08vYhIrHqMqNjVAkhFGilv6w3BA7jhwA44yGiKcm9El1kj49/FfhHeM/ueQDXBueLQ+5ukAYQb3x/g6MgMhPCwrBidYGyPBuAfHfhv2/OHy78Lj4fn5/OfE+vn+t8I/un8T4b//Bc=);lineShape=1;strokeColor=#3399FF;" parent="1" vertex="1">
          <mxGeometry x="-568.4211179992762" y="-1132.2907175560265" width="100.46118043021384" height="17.050938518320567" as="geometry" />
        </mxCell>
        <mxCell id="CY8MMUGnLJXL2RhmMoPn-137" value="" style="shape=stencil(rVfbbtswDP0avxIidX/uuv8o0HQJliVFmt3+ftRcJxYNnWLA3mz5kKIOD0l58g9v+6fX3STu7Xo5f939PDxf95P/NIkcTvvd5XDVp8k/Tv7h5XzZfbmcv5+e5/fXp4ZsT9/OP5qHX7NdLZRysxL3+32FOP5d+Dzjj4fTGs8ktcNzphzGBsVRDZ2BJCplbJAKhd7AZ/JghxgoS2cQKnkeGwSmEjuDxORASF4/p84g64qMDcQT9yxlDamODZTEd04WgxIpurFBJumP0BIJzpzIGXylmAFHlEyanSMHAvIkxW5QgJCYarV49mO8ysgcIFMFKXAkfcpqgiq6ne6GD5Ag9W/wQhloyFHxPZ6JgX+2+FKpQv5dtXhGRUDB4AsVEE9cvq78C+A/Ext+HDHAF3IbfkJC+Gj05j/wbwSt+UX6KYtaVvpJgJ+8iacQozZHYVMvqGnFpS2v8Ch+v3TlNR7wKRScxQfgnzf1pYzBegkbPpGetR4NPsJ6cUsHX+kBxxPN3GNKIF83Na70LP8T7+0BsjY41CCKrcgscGS0kuxLIAUS0HJ17tZeEzpqGewQnRVdEDg0NADfn0GvHwl1lWRl1GhAbSJSNnmAsmtdpI+IyQP/iq992hwlwGnrOs7gkaxV9cX6R4xqVZVk/YOxp1M0V4OPQKb3a8adHyRr7SJiMgzHhuKNhDwc262r9fHjsb26xtxEvUzaYUCmzJbL4Ajv+9toWcpuSOg/XcA/xOvD/bb/cjge55+F9Xf7d6BL85+Ff/wD);lineShape=1;strokeColor=#3399FF;" parent="1" vertex="1">
          <mxGeometry x="-488.6939337027659" y="-1118.0798352548215" width="18.654887513979833" height="14.575135406877182" as="geometry" />
        </mxCell>
        <mxCell id="CY8MMUGnLJXL2RhmMoPn-142" value="" style="shape=stencil(7VnLbhsxDPwaXwlJ1IvntP2PAHEao2kcOOnr70vV0GZF2bPIsUBuic3xSsMhOdLu+Obl4fZ5vwvu5fV0/Lb/dbh7fdjxp10Ih6eH/enwqn/t+POOb+6Pp/3X0/HH0935/+fbFtn++n782X7h9xnnKJQGCu7P+QMRcunfJ1/O8Y+HpyHeuTE+U4koPssYH8nL9fhAMY/xnny+Hp/IjfG1UCzX4yuxH+OZHF+P957quOFSOwWXAYmiAQTK6AlKeBgAufRPLlOkv5dGgKdYASDbJKdE2QOAUB2zFoUSALCSWEcAE4M9sC5gBHAhD/agX4eRVvaQVgXUOACUhgwSx5X8mAcl2oNSUEAYn+Ar1FIDjLT6SAE9oZCMm/aOKsqDssSj+KggVnN//qIMYsRRpDKWG1NCvx+ojpx6rKNAkk18AN2ixVcT77BOeSTUwe6l8WLjI1qP8pNMfED8JNtdHHmkoGz36zYVxzYe5Vd6I1nFA36is61I14/itWaLiWeQrxg63W/xCbQV7TpmHGh+wTRoXcqUMJx+ydn8BqiHNLWIRB7wn5fyWFo7bHJZy3XkZ0n4xfii9E0NxYENlEw8JswvE/ryfA124GuPq2BJtVIxS8oQILWX7AIQEiAKdTRGpBtV6d3kcpqPAQh9hNWFh7zqJoQtAPEqhXKwgIIAiaRYgIDabMbMDMwAm4WEPuLXT0CJ0Orx0x4AoEr3cmuWQL+okzZaHrD60ijXlmn0BOm/txYTAIizAJVrRYnzdtMKQMZFuC9gBYBaSr3JrQGg7anHt2Nc/SDoqypvnjeNWJKe1xWtyHwpQKaiTkjeYke5AgSxJBTGWaJaYrQkNZCTvDNiKVOaukZFXWOyF63iEED90bQkuGlvtRSWA9C1eqhTI0MjugGmEkWAolIznlCHHAKwTZxOFA/ykJevFwDDTSexvVWPicgHp9gPN8uxFsbrcUve4+NjtFtOsCmpL0wma10oH7589+HL/zdfruuxBQmvH/T3TedlvN/Y5bLy8UBvGm/cWunW53L8cixY+XJIUJqMPL5KUEA0M79iCSWbgnYdgpfkjFnLXYXXSIpjEbDaQVA1cZpmXLrPuFYGxoa0xOP7Ez/qVDsxWpI2IuMfU+rz7TJgsoMZe2Al0R4JC8y0StncJ5ZAFR13ZBJr7ePkMkAPhWM1VFw+nu0eaoG06jg1am2uGN26Lv1wdc8MzZoV68Y9drUDYeOevNr7zWYnQRKme2mNT2DDC3+r+Aw6UrYDXATqNNsjQvPPIH4+Ujg80qJV6RZgkvXGioJ14xs79rbfbTDq7FXoRsacvarZUMT738xsxesfb6+B7g+Pj+e3SOvv7Wsj/ej8yok//wU=);lineShape=1;strokeColor=#3399FF;" parent="1" vertex="1">
          <mxGeometry x="-443.85519669372457" y="-1219.8627513432457" width="16.85427378368083" height="75.27382073406334" as="geometry" />
        </mxCell>
        <mxCell id="CY8MMUGnLJXL2RhmMoPn-143" value="" style="shape=stencil(lVbLcttADPsaXTlccl88p+l/ZCZO7WlqZxz39felqlHqpSu0uckyYJMgFstJ7173Dy+7Sfj1cj593n0/PF72k36YRA7H/e58uPjTpPeT3j2dzrtP59PX4+Py+eVhRs5PX07f5l/4sfCsE+vMEv65vEmJWvr95uNCeD4crwi9kpaBIEolbxOakLWBoI0M/EOpZDwQSqbStglqJHkgtETFtglesYw9eFfCoGkqdcC7bK2DnonHgsyoAnyJmiZmYlCQUi3xD9DUhJLGBjoYGpMFfKMMRsCrfG/4Qq0iPAe8UgcCMWkYgKy+/Ss+kYT6mTLQU6iM+G6UQP2Zkoz4ThnoWVa1r/AK6m9UOOK7IIPaTf0dzMvI+qhPIgX4xOsZvxoYEmgmhIkV4gIJPEpqlTogeMsWLa2gIpc0tGz/GJlJxBu0hKSIRyMQqhzxCYSWWzr029Zg3ToyFvVE+tweSU9dEClMKejpHQFLM/VQD685v6EPjwZySxdwBN6LT5XySGiNFDSsEh1avWPkCIsl5UIVWK7meGjc5Q1o5BWHQ5AUDnmOhfEc+20PKvJYCDeZjxEU5B7IKeAFaDrHfgt4dO95iKgGfAL3hnu+xXpgvy0GaYIT88wJKSEwtOY9YMR7bKCcvgnqAu/tq73hzdWrzTcLCjm9Tnyz4eA4v1nRBN67YP4HwR/+7LNPh+fnZR2+/j7uv/5q2Z31/hc=);lineShape=1;strokeColor=#3399FF;" parent="1" vertex="1">
          <mxGeometry x="-449.92849996250175" y="-1220.244170694816" width="12.440826748685195" height="11.294906458558465" as="geometry" />
        </mxCell>
        <mxCell id="mZcW2EEmMSQklxctBWLc-68" value="" style="rounded=0;whiteSpace=wrap;html=1;glass=0;shadow=1;sketch=1;curveFitting=1;jiggle=2;" vertex="1" parent="1">
          <mxGeometry x="-165" y="-2508" width="66" height="220" as="geometry" />
        </mxCell>
        <mxCell id="mZcW2EEmMSQklxctBWLc-69" value="" style="rounded=0;whiteSpace=wrap;html=1;" vertex="1" parent="1">
          <mxGeometry x="-565.8000000000001" y="-2002" width="286.71" height="22" as="geometry" />
        </mxCell>
        <mxCell id="mZcW2EEmMSQklxctBWLc-70" value="&lt;h1 style=&quot;margin-top: 0px; font-size: 24px;&quot;&gt;Wall jump on blocks for high ground&lt;/h1&gt;" style="text;html=1;whiteSpace=wrap;overflow=hidden;rounded=0;horizontal=1;imageAspect=1;absoluteArcSize=0;autosize=0;autosizeGrid=1;fixedWidth=0;fontSize=24;" vertex="1" parent="1">
          <mxGeometry x="-270.24" y="-2178" width="308" height="66" as="geometry" />
        </mxCell>
        <mxCell id="mZcW2EEmMSQklxctBWLc-73" value="" style="rounded=0;whiteSpace=wrap;html=1;glass=0;shadow=1;sketch=1;curveFitting=1;jiggle=2;" vertex="1" parent="1">
          <mxGeometry x="-495" y="-2508" width="396" height="110" as="geometry" />
        </mxCell>
        <mxCell id="mZcW2EEmMSQklxctBWLc-79" value="" style="rounded=0;whiteSpace=wrap;html=1;" vertex="1" parent="1">
          <mxGeometry x="440" y="-2332" width="40.02" height="154" as="geometry" />
        </mxCell>
        <mxCell id="ymAXz0gpJO2QQh8U3Y0Z-3" value="" style="rounded=0;whiteSpace=wrap;html=1;fillColor=default;glass=0;shadow=1;sketch=1;curveFitting=1;jiggle=2;" parent="1" vertex="1">
          <mxGeometry x="-484" y="-924" width="88" height="88" as="geometry" />
        </mxCell>
        <mxCell id="ymAXz0gpJO2QQh8U3Y0Z-11" value="" style="rounded=0;whiteSpace=wrap;html=1;glass=0;shadow=1;sketch=1;curveFitting=1;jiggle=2;" parent="1" vertex="1">
          <mxGeometry x="-715" y="-902" width="88" height="44" as="geometry" />
        </mxCell>
        <mxCell id="zB-dNNCVun9OCo5Wdo3Y-1" value="" style="rounded=0;whiteSpace=wrap;html=1;fillColor=default;glass=0;shadow=1;sketch=1;curveFitting=1;jiggle=2;" parent="1" vertex="1">
          <mxGeometry x="-484" y="-759" width="88" height="99" as="geometry" />
        </mxCell>
        <mxCell id="zB-dNNCVun9OCo5Wdo3Y-8" value="" style="shape=stencil(lVfZcloxDP0aXjXyJsvPafofmQkpTGnIENLl76tb6gvyhcPk7WJ0ZC1Hi1fp4X3z9LZeRX4/Hvbf17+2z8fNKn1Zxbh93awP26N9rdLjKj287A/rb4f9x+vz6ffb0yQ5ff3Y/5w0/D7hmlCLEyryn/8njUr+d/L1BNhtXy8BgVQcIDAT822EVoqLK1oAgMUVrZLG24BaFoBEFZgkSrE5gArVdhtQGokHVKWQAIBJiwOIqQA+5EhRPSBQBTekQhwcoBQS4HTUHvUZwPCGmCkmB8iVCrghVGrsAYG4AkCgnB0gZaoKAJSqJ58xA8gzFe9BKBQFyfOgP1IAWTN5b79CGjFlTwrLGCiE0G3t4rEX6/V8jcFhasCYRKKDOIPCL6OrTAFEUij5orfUAe2Vkjcm9VBdbxEUPNGEIuCZUh46EBXUgCh57cYCBYVSqfq0GssURF66tlnebgTeGkt86IM1UOBuHrvbVAdA3miVR3kG9s+N6cL+AquwDlVl6QJ9xJg1yCeKIF/z/Dmnt0H10asXEpBdqyKfXZstgMmhp+ZM/ILa+NhjzTqgPVNpgziavWVs+XyHyDw2HAG8/KR4yJ0lFzxQxMvQaTJfgBvm1AaGeRKpAkDiMUDJnELpkj5v5hGHnc65D5AZ0IhBsZQ4bg4FV4vtCeo5Iak3jOtp45FEdiLApGpz3ZO0ClwEdMFqtdEHOspyqzQVqIaXe6tmSmAe2QopMgJQ02ra9c2A0r26BWieGoqnkq3B2bcKW5VR4gygg9MNrjMXq/ncGgOc8tcQERbp0qiW73kxuG3JRF4sAzslE2diSJ2dCPJhQQ4zMoFV6/PPpvsA+zi/0l62u93pkXf5//iqs6PTizA9/gU=);lineShape=1;strokeColor=default;" parent="1" vertex="1">
          <mxGeometry x="-528" y="-858" width="22" as="geometry" />
        </mxCell>
        <mxCell id="zB-dNNCVun9OCo5Wdo3Y-11" value="" style="shape=stencil(7VnJUhwxDP2auaq82zoT8h9UAWEqBCgg299HzuChLU2/rsklOeRGJnptSdb6vIsXL3dXTze74F5enx8/33zfX7/e7eKHXQj7h7ub5/2r/LWLl7t4cfv4fPPp+fHrw/Xh309XXbL/9eXxW//CjwPOEccOCu7n4YfmKJXfv3w8yN/vHxbygZKSDxTaunykylqew7p8pqi+Hyn6dflKzmn5Ar7fqDYtz2ld3os78gxI5BDAU8v6hLdfTgPEIVUDMjohUTN3gHzqizkhUK4A0CiZW6sAIGGUzDW8BcppQDBeShQQIFNNGtBAYMhNs58BGZ4QJZBZAzICZCpFAyrInSgqNQ1AF5esSoUcUCmJSlEDPDqhjehfAkA+52AStFBACZ2pFQMA+ZD5hA2oxJQ4vL4EMAA0c3EFF5ljyi8BwOjKlMM5AAlmtiqBm27WS5kSOIGjSdFEHpzAR58sikABRYAbeWWDowbugVmfIH7zDgJSMQCkknjJnJCxSjVrG9A9CECHt6cIwlsAOuPClkqsikAcv6y0LGeaYh5dbPUI1SDK1s3p4tpgce1uUgnBIx5XL2K2gR3MUQHkrAGMVVIJwZ4COqESWwDyUqFsbEBdkRMVddV1dOLTgGMfX0SfQzctoaEySGwAw4YoEGe39voMUq5XlfmmpSmhpO5FYgZEUQkAah2xOQD+GF2nAaLAnHLHeF8r9yrjeHxgTb7NtyAagobV5ee4kFKLv6+GaImTje/PvSGS27B3lvfwisWfbrbXUUH65xFi7/IO6X/sZAt5ENQin1nJZzCHiXzV9qKBW+SVP8Mof6vy85yXKG/Iz/7EM1iXV11tDMer9qo6RA7niy6lW/bG2V7ZmlBh7AHhNABmWNYDmBTvjYhW/Wkrw1QNKlsZrDIywypak76xCHt+l5+/H2AN7f7RGYN6X6+ITcmj1tdvuCh5h/XJUcmjKeps+aYnxx5AaFz2Y4U4OtTDVixtTE2Osu6hUVMaZZtDNDHcc6QVK5uLg7uaNHu1I8gig/qejBNq1KxxVLK1gUUtFVU6E5o/qt5opTlXkDj/R/4/H/mBW1dGflCR/tLID4PpHxz5xcRiACi+JV9mt/YRHcwifS1XnS1Biqcv/srojJkCQy2IkrBZGfKCMWNj6ZEOAEZbAmYLYCgexpyQJZEYc0KWpmLM2FgirAOAlyzVxri4WjJPAGiNt3Rh30DBTVtCsncAxGAaylMAqAVZUlVaBqLPLW0rADS6WWJYAIiFtdQz4+HQkttSRzxi9A193mshaHKWoF8U9NU3gKCPKGe9MjBeAvo7RtJuqkgl81IigIwW//GksJQHJhSzlTe49mQTeg3OJlGTL10f9MIweO9F4BVgr6Oq5DPUx5kynGFFcpqpkU6CRgCnlzDpRYh3kYhU/vGwWDi9kzS8RtoRpg2yak3+rJcINwbNBQGeoP+D4b8Z6hPNWFhBY3ajNi/pcqiPYi2ag+3g3KfdbXn54/0d+XZ/f394hl7+v353lp8Ob9bx8hc=);lineShape=1;strokeColor=#3399FF;" parent="1" vertex="1">
          <mxGeometry x="-506" y="-858" width="66" as="geometry" />
        </mxCell>
        <mxCell id="zB-dNNCVun9OCo5Wdo3Y-12" value="" style="shape=stencil(lVbLctswDPwaXTEgwec5Tf8jM3FqTVw747h5/H2haqiKsLWT3GQaIIHFYoFB7l73Dy+7wfPr5Xx63r2Pj5f9ID8G78fjfnceL/o1yP0gd0+n8+7X+fTn+Dj/fnmYLKev36e36YaP2a9mKmHy8vw5nzhH2f07+Tk7HMbjyqFk4tQ5eEcStx1yplg6B2ES8EKKxLFzCI4CcIjcAmgOMZLkbQcJlPocMlMGDq5ahxKpoBwo9/a1NJxvp0Ax9/b6Yt22D+SlrxozMW87eCrVPpAFZEyp2AQquF/x62mkxEoAICZnAIpUQcJLdou9QgDv9yZ+TyEh+2oKoCce4VN7PIviCbpAyEdrz4BxytA+36L4g/tji3Z1fwDxZ9tjmi/qMZUJg6ejAvhTSPp4qlAE8ah9T2jlAxKJTNVZvjG0d4Y/hQLG0+SreOJ6XdlXwDe5wqc2hDf616iu2nvYv+xtvgz7SwyeiSLsl+t+RIKo/W70QYhB/Kon5n6dAUB/VK9Mvgzz/bZ9aO2xjIwEG8BrfXqFSJoBcAih3beMPZ0KiKK1KdpqsGbAoeya5C9To7ay3G5KZ8eSY9gFk8j2sqI8BA8oCUIPEsNdQkmWgrFHU68uU3plD2qgpK/2fqSiKjpmbLg2127bF1tjTx7FryU2u1MDbMveyHRoCd1mNV/1cWovbj7QA1Sg7E4JGF2BsqsAWYoyXEe/vb9+wUE//q/LT+PhMG/b6//teq1H82ou938B);lineShape=1;strokeColor=#3399FF;" parent="1" vertex="1">
          <mxGeometry x="-440" y="-858" as="geometry" />
        </mxCell>
        <mxCell id="zB-dNNCVun9OCo5Wdo3Y-15" value="" style="rounded=0;whiteSpace=wrap;html=1;glass=0;shadow=1;sketch=1;curveFitting=1;jiggle=2;" parent="1" vertex="1">
          <mxGeometry x="-220" y="-748" width="66" height="22" as="geometry" />
        </mxCell>
        <mxCell id="zB-dNNCVun9OCo5Wdo3Y-19" value="" style="rounded=0;whiteSpace=wrap;html=1;glass=0;shadow=1;sketch=1;curveFitting=1;jiggle=2;" parent="1" vertex="1">
          <mxGeometry x="-220" y="-814" width="88" height="22" as="geometry" />
        </mxCell>
        <mxCell id="zB-dNNCVun9OCo5Wdo3Y-20" value="" style="rounded=0;whiteSpace=wrap;html=1;glass=0;shadow=1;sketch=1;curveFitting=1;jiggle=2;" parent="1" vertex="1">
          <mxGeometry x="-220" y="-968" width="22" height="154" as="geometry" />
        </mxCell>
        <mxCell id="zB-dNNCVun9OCo5Wdo3Y-22" value="" style="rounded=0;whiteSpace=wrap;html=1;glass=0;shadow=1;sketch=1;curveFitting=1;jiggle=2;" parent="1" vertex="1">
          <mxGeometry x="-704" y="-1188" width="66" height="132" as="geometry" />
        </mxCell>
        <mxCell id="zB-dNNCVun9OCo5Wdo3Y-24" value="" style="rounded=0;whiteSpace=wrap;html=1;glass=0;shadow=0;sketch=1;curveFitting=1;jiggle=2;" parent="1" vertex="1">
          <mxGeometry x="-704" y="-1056" width="198" height="22" as="geometry" />
        </mxCell>
        <mxCell id="zB-dNNCVun9OCo5Wdo3Y-27" value="" style="rounded=0;whiteSpace=wrap;html=1;glass=0;shadow=1;sketch=1;curveFitting=1;jiggle=2;" parent="1" vertex="1">
          <mxGeometry x="-561" y="-1287" width="88" height="44" as="geometry" />
        </mxCell>
        <mxCell id="zB-dNNCVun9OCo5Wdo3Y-28" value="" style="rounded=0;whiteSpace=wrap;html=1;glass=0;shadow=1;sketch=1;curveFitting=1;jiggle=2;" parent="1" vertex="1">
          <mxGeometry x="-506" y="-1078" width="132" height="44" as="geometry" />
        </mxCell>
        <mxCell id="zB-dNNCVun9OCo5Wdo3Y-29" value="" style="rounded=0;whiteSpace=wrap;html=1;glass=0;shadow=1;sketch=1;curveFitting=1;jiggle=2;" parent="1" vertex="1">
          <mxGeometry x="-418" y="-1210" width="22" height="132" as="geometry" />
        </mxCell>
        <mxCell id="zB-dNNCVun9OCo5Wdo3Y-30" value="" style="rounded=0;whiteSpace=wrap;html=1;shadow=0;glass=0;sketch=1;jiggle=2;curveFitting=1;align=center;verticalAlign=middle;fontFamily=Helvetica;fontSize=12;fillStyle=solid;fillColor=#FF6666;strokeColor=#b85450;" parent="1" vertex="1">
          <mxGeometry x="-638" y="-1078" width="132" height="22" as="geometry" />
        </mxCell>
        <mxCell id="zB-dNNCVun9OCo5Wdo3Y-33" value="" style="rounded=0;whiteSpace=wrap;html=1;shadow=0;glass=0;sketch=1;jiggle=2;curveFitting=1;align=center;verticalAlign=middle;fontFamily=Helvetica;fontSize=12;fillStyle=solid;fillColor=#FF6666;strokeColor=#b85450;" parent="1" vertex="1">
          <mxGeometry x="-484" y="-836" width="44" as="geometry" />
        </mxCell>
        <mxCell id="zB-dNNCVun9OCo5Wdo3Y-35" style="edgeStyle=none;curved=1;rounded=0;orthogonalLoop=1;jettySize=auto;html=1;entryX=1.01;entryY=0.409;entryDx=0;entryDy=0;entryPerimeter=0;fontFamily=Helvetica;fontSize=12;fontColor=default;startSize=8;endSize=8;" parent="1" source="zB-dNNCVun9OCo5Wdo3Y-27" target="zB-dNNCVun9OCo5Wdo3Y-27" edge="1">
          <mxGeometry relative="1" as="geometry" />
        </mxCell>
        <mxCell id="zB-dNNCVun9OCo5Wdo3Y-36" value="" style="rounded=0;whiteSpace=wrap;html=1;shadow=0;glass=0;sketch=1;jiggle=2;curveFitting=1;align=center;verticalAlign=middle;fontFamily=Helvetica;fontSize=12;fillStyle=solid;fillColor=#FF6666;strokeColor=#b85450;" parent="1" vertex="1">
          <mxGeometry x="-550" y="-1309" width="44" height="22" as="geometry" />
        </mxCell>
        <mxCell id="zB-dNNCVun9OCo5Wdo3Y-39" value="" style="rounded=0;whiteSpace=wrap;html=1;glass=0;shadow=1;sketch=1;curveFitting=1;jiggle=2;" parent="1" vertex="1">
          <mxGeometry x="-352" y="-1210" width="44" height="132" as="geometry" />
        </mxCell>
        <mxCell id="zB-dNNCVun9OCo5Wdo3Y-41" value="" style="shape=stencil(lVfbchMxDP2afdXIkq/PpfxHZ5qSDCHppAHav0dL8CZy2QN92zg6tnx0dPGkdy/bh+fNJPxyPh2/bn7uHs/bST9NIrvDdnPane1r0vtJ756Op82X0/H74fHy+/lhtpy/vh1/zDu8XnBNSXlGCb/9WWlUyu+VzxfAfne4AVShWj0gEus6oAhpdICaqLZ1QA7UxAFKphbWAUkoqgPkShUAYiT1J9iZnNcBGkeXUqQIWJIyupS40/BXQGikHhALZXBCpOpZ1UrMwKN39okC2D+QFG/PlEHUmKQ5e0lQFty97fahUoH7R+9/EMqC/E/Ji4gCijCJp1+oAW/SeFumBKJbKMlgzoD71ple7koZUBnsrj5WCarZmGvZpzC8bFAq3v2QYELOAO+Q0SlAnAbgQT2VBJ0QxhNUe0hWKG1eDmo1BVUtql6ell4FRDiNITD7BOSpvXzc+KPowlS8PlVgPVn0uBBaiMH+JkgfYltBRZp7eBZJxH+kY/D2VqGBRJfcXqoh1E8c2bfjADmZim9hDEtn7dlxNUfUfNB8DpUPbTB3KpAOUxhKZ4LtTkvn+jYdAT+x9tJ9ozZOQP1plFtkWIKyNdQBUCmgfLRu5RM4ZZjw1Rqk10RWmDEtjR3YpggBcWiZsncpN4ogB5rFYRhsAkUQuLa0xAUQobBtdks+zUrpfXMNMAw21VIH5TG/a9zGdEPNzOZJT1OtcMI0QPC3boJreyX1J1xjuRaIYbixlYICkcfyaE4qKBk2E+ehIjEuMh8exP8DYB/Xuf9pt99fng23/4/vBFu6vDH0/hc=);lineShape=1;strokeColor=#000000;rounded=0;shadow=0;glass=0;sketch=1;jiggle=2;fillStyle=solid;curveFitting=1;align=center;verticalAlign=middle;fontFamily=Helvetica;fontSize=12;fontColor=default;fillColor=default;" parent="1" vertex="1">
          <mxGeometry x="-594" y="-1122" width="22" as="geometry" />
        </mxCell>
        <mxCell id="zB-dNNCVun9OCo5Wdo3Y-48" value="" style="shape=stencil(lVfLctswDPwaXTEEwec5Tf8jM3FqTV0747ht8veFRkNVhKVtc5MlLAkCuwt6kIe349PrYfDu7Xa9fD/8Hp9vx0G+DN6P5+PhOt70aZDHQR5eLtfDt+vl5/l5/v36NEVOTz8uv6YV3mdcTZTchPLuY37jHfH85usMOI3nFaAIsXQAcW2JTUBmcrUDBCYPAMlRDh0gMgW/D9DPud9Bl6iyDwienO8A2ZHP+wBRQF+lXNqemwAvJKkDlEQ5gbJSLV18Xd5sV5Vc34VaqYITRHsAjS+gptJIsMongvyZosknkYAmOwp9far8I97kXzR/kI+SuNr6S0D5G0ZMPGfQYAomH0cRxAebjxII1T9txCPRLF/XBAUSYC0o2wPAAqkG+w4XTwUwlH1r6KoFDlBUATHaHke8A/dGoSRy+AzcH1pZ6oCMl/1XKgigy5nyncqQ6iOl3MWzW4i+I8v7DZBbe9vlmokjkk02sgzNyPZkaQrEzZj24o0tZgqgATpa+vVLaONnR8bFyF5nDVhfmqktsql4EHwynrNNKBVioHsVfu05rbMMUU4SxZ5D0UPVhNQ0ssxjgaMmRjvLJFAGgHS3g9ofGuD5zr1YGnG3dcmt6gugEWs73lPqj6DzHtBIWc/exCNZ1miboGYKKqS2U8Xkj2SmtmOMC3uvuoLrrTRQAcao8cmMGywzdzePdQVUUL2d9A2YzBufwCiNAyV0hNJOuAASvCGoExbTAx2ZiHSfvSr/B0Af/t7MX8bTab7Yr7/bm7y+mv8FyOMf);lineShape=1;strokeColor=#3399FF;rounded=0;shadow=0;glass=0;sketch=1;jiggle=2;fillStyle=solid;curveFitting=1;align=center;verticalAlign=middle;fontFamily=Helvetica;fontSize=12;fontColor=default;fillColor=default;" parent="1" vertex="1">
          <mxGeometry x="-440" y="-1188" width="22" as="geometry" />
        </mxCell>
        <mxCell id="zB-dNNCVun9OCo5Wdo3Y-52" value="" style="ellipse;whiteSpace=wrap;html=1;aspect=fixed;fillStyle=solid;fillColor=#3399FF;strokeColor=#6c8ebf;" parent="1" vertex="1">
          <mxGeometry x="-452.5" y="-1133" width="22" height="22" as="geometry" />
        </mxCell>
        <mxCell id="zB-dNNCVun9OCo5Wdo3Y-53" value="" style="rounded=0;whiteSpace=wrap;html=1;glass=0;shadow=1;sketch=1;curveFitting=1;jiggle=2;" parent="1" vertex="1">
          <mxGeometry x="-264" y="-1320" width="44" height="154" as="geometry" />
        </mxCell>
        <mxCell id="zB-dNNCVun9OCo5Wdo3Y-55" value="" style="rounded=0;whiteSpace=wrap;html=1;glass=0;shadow=1;sketch=1;curveFitting=1;jiggle=2;" parent="1" vertex="1">
          <mxGeometry x="-176" y="-1166" width="44" height="110" as="geometry" />
        </mxCell>
        <mxCell id="zB-dNNCVun9OCo5Wdo3Y-65" value="" style="shape=stencil(rVfbjlMxDPya82o5ca7Py/IfK22XVpR21S23v8eHklK7ygASb6epJ4ntGdtZ5OFt+/S6WSK/nU/Hj5uvu+fzdpF3S4y7w3Zz2p31a5HHRR5ejqfNh9Px8+H58vv1abVcvz4dv6w7fLvgeiEOKyry918rnWr/ufL+AtjvDjeAVilUC4iUyxxQG5VmAC1SCnNA6VTEACpTYwBgD8iNap0DcqDSDSAVKmkOSEJiAVKpgyhJpugAeiZwOmpYswHERgxOCI26DatuUTIAhLHfzQkFJE5GWq8uMAmw16xa+6hMauBCd/aVKkiCZtkSL6axw8Q+uP2ZImAFE7OxD5lKhPvbeAaGnGCqlqWFGrh+oJxs+If/k+hny59AFSa3eHMBviZ/d002UGT2qUrUABMKiasQlFGBGOK+3j1SR/WBWrT2FWqxULZEUG8DCE6m5oiZhzYnwfTKxeVKqNvgqxAjqiXeX7UPQFjBx3ONPxRKZ+8voqaWDWcf/iB015I0XwEKyxU25UOC9tnGp43aOwlPtEJMuJJTdN4O/CS50ZIhjGj9D/O1JFmdMxRu6BTY2TOw15Ld/P5I6XKnrUwBBDMlzzXNrQjQovjkrmRDYr9rW6LNHiSshjG9XPmQYJ9oPNh49VmnA1CbWyOxgiwJtopePUX1khmkrTcvsar9A4RVAdUBEsyDTpFuAKoFTgPr2OlO0BUgSwU4ajchRg2V7zp8K4MtsyMcu1sftXgGcOzrAqc4BfjxO4/qPUuE44Ymv2NuuOFYzxSUiPt2ybgI/PMb4i8A+vH7yfKy2+8vL57b//0TR5cuzyN5/AE=);lineShape=1;strokeColor=#000000;rounded=0;shadow=0;glass=0;sketch=1;jiggle=2;fillStyle=solid;curveFitting=1;align=center;verticalAlign=middle;fontFamily=Helvetica;fontSize=12;fontColor=default;fillColor=default;" parent="1" vertex="1">
          <mxGeometry x="-308" y="-1144" width="44" as="geometry" />
        </mxCell>
        <mxCell id="zB-dNNCVun9OCo5Wdo3Y-67" value="" style="shape=stencil(lVfbcttACP0avTLA3p/T9D8yE6f21LUzjtsmf19UValZWcfJmyxzdoEDBzSEu5ftw/NmUH45n47fN793j+ftEL4MqrvDdnPane1pCPdDuHs6njbfTsefh8fp9/PDaDk+/Tj+Gk94nXAtUswjSvltehMqafv75usE2O8OF4BaqLYeUAGgJMriAFGoyTogF8rVAxLVuA5IldgDkpDkdUC0GHzQdoQAlyzE4GPIkRIDAFMsHtCo1HWACgUPqEwlAB4oqLNvjRhlldSfL8zEIIRIGvwFFTqkFDuH0uziVXsh7s5nEsAyk7JPUID+8JyO2b5kKgnZJ3++MdaAvfRlbSXBIN5A6u1Towzyn0iSty8wP4XU5z9lauD8tvCnwrYUno97D1ipgS4TJfEe5UoZVYRSiZ4yKyEQwgjoakJvAbgDYPGyoIvPkgnmv0Zdacvm28y6RsAFeU7hRRs3kKPYk2D2EURsFHm1bpky8F8oegqazn260jWxS2iCRcE9AcVkC+SHe9kqOvfFiv/S6a7NDmCvlL0KZaYK8mPjshs1hQrk63P2UvoAIg54HAT+hiBU0WjKxP4Gk44AKLbp23GseDSl1Bed4CIyjppnIc3D5LrU2fD1yiKzmH1wZ8Gjb7kUMZRqm3SVO38QZ60Q+/NNyEDTjBrS7SsUwCgYVwE/O+qsrGv23cYl2KGL3eEdYYUL9psrCEsS6oSlUyaWAqpoGbVtYZCGRVpDoHSDt+6GGy4tCiMUzMRn1/EPAOzh//b/tNvvp4+Hy//7rwV7NX1phPs/);lineShape=1;strokeColor=#3399FF;rounded=0;shadow=0;glass=0;sketch=1;jiggle=2;fillStyle=solid;curveFitting=1;align=center;verticalAlign=middle;fontFamily=Helvetica;fontSize=12;fontColor=default;fillColor=default;" parent="1" vertex="1">
          <mxGeometry x="-198" y="-1166" width="22" as="geometry" />
        </mxCell>
        <mxCell id="zB-dNNCVun9OCo5Wdo3Y-68" value="" style="rounded=0;whiteSpace=wrap;html=1;shadow=0;glass=0;sketch=1;jiggle=2;curveFitting=1;align=center;verticalAlign=middle;fontFamily=Helvetica;fontSize=12;fillStyle=solid;fillColor=#FF6666;strokeColor=#b85450;" parent="1" vertex="1">
          <mxGeometry x="-308" y="-1078" width="88" height="22" as="geometry" />
        </mxCell>
        <mxCell id="zB-dNNCVun9OCo5Wdo3Y-69" value="" style="rounded=0;whiteSpace=wrap;html=1;glass=0;shadow=1;sketch=1;curveFitting=1;jiggle=2;" parent="1" vertex="1">
          <mxGeometry x="-352" y="-1078" width="66" height="66" as="geometry" />
        </mxCell>
        <mxCell id="zB-dNNCVun9OCo5Wdo3Y-70" value="" style="rounded=0;whiteSpace=wrap;html=1;glass=0;shadow=1;sketch=1;curveFitting=1;jiggle=2;" parent="1" vertex="1">
          <mxGeometry x="-308" y="-1056" width="176" height="44" as="geometry" />
        </mxCell>
        <mxCell id="zB-dNNCVun9OCo5Wdo3Y-71" value="" style="rounded=0;whiteSpace=wrap;html=1;shadow=0;glass=0;sketch=1;jiggle=2;curveFitting=1;align=center;verticalAlign=middle;fontFamily=Helvetica;fontSize=12;fillStyle=solid;fillColor=#FF6666;strokeColor=#b85450;" parent="1" vertex="1">
          <mxGeometry x="-264" y="-1342" width="22" height="22" as="geometry" />
        </mxCell>
        <mxCell id="zB-dNNCVun9OCo5Wdo3Y-75" value="" style="rounded=0;whiteSpace=wrap;html=1;shadow=0;glass=0;sketch=1;jiggle=2;fillStyle=solid;curveFitting=1;strokeColor=default;align=center;verticalAlign=middle;fontFamily=Helvetica;fontSize=12;fontColor=default;fillColor=default;" parent="1" vertex="1">
          <mxGeometry x="-66" y="-1232" width="396" height="22" as="geometry" />
        </mxCell>
        <mxCell id="zB-dNNCVun9OCo5Wdo3Y-78" value="" style="rounded=0;whiteSpace=wrap;html=1;shadow=0;glass=0;sketch=1;jiggle=2;fillStyle=solid;curveFitting=1;strokeColor=default;align=center;verticalAlign=middle;fontFamily=Helvetica;fontSize=12;fontColor=default;fillColor=default;" parent="1" vertex="1">
          <mxGeometry x="-66" y="-1166" width="110" height="22" as="geometry" />
        </mxCell>
        <mxCell id="zB-dNNCVun9OCo5Wdo3Y-79" value="" style="rounded=0;whiteSpace=wrap;html=1;shadow=0;glass=0;sketch=1;jiggle=2;fillStyle=solid;curveFitting=1;strokeColor=default;align=center;verticalAlign=middle;fontFamily=Helvetica;fontSize=12;fontColor=default;fillColor=default;" parent="1" vertex="1">
          <mxGeometry x="176" y="-1166" width="110" height="22" as="geometry" />
        </mxCell>
        <mxCell id="zB-dNNCVun9OCo5Wdo3Y-91" value="" style="rounded=0;whiteSpace=wrap;html=1;shadow=0;glass=0;fillStyle=solid;align=center;verticalAlign=middle;fontFamily=Helvetica;fontSize=12;fillColor=#000000;fontColor=#333333;strokeColor=none;strokeWidth=3;" parent="1" vertex="1">
          <mxGeometry x="528" y="-638" width="66" height="22" as="geometry" />
        </mxCell>
        <mxCell id="zB-dNNCVun9OCo5Wdo3Y-104" value="" style="rounded=0;whiteSpace=wrap;html=1;shadow=0;glass=0;sketch=1;jiggle=2;fillStyle=solid;curveFitting=1;strokeColor=default;align=center;verticalAlign=middle;fontFamily=Helvetica;fontSize=12;fontColor=default;fillColor=default;" parent="1" vertex="1">
          <mxGeometry x="836" y="-813.38" width="88" height="330" as="geometry" />
        </mxCell>
        <mxCell id="zB-dNNCVun9OCo5Wdo3Y-106" value="" style="rounded=0;whiteSpace=wrap;html=1;shadow=0;glass=0;sketch=1;jiggle=2;fillStyle=solid;curveFitting=1;strokeColor=default;align=center;verticalAlign=middle;fontFamily=Helvetica;fontSize=12;fontColor=default;fillColor=default;" parent="1" vertex="1">
          <mxGeometry x="380" y="-1115.05" width="88" height="308" as="geometry" />
        </mxCell>
        <mxCell id="zB-dNNCVun9OCo5Wdo3Y-118" value="" style="shape=stencil(lVbLbhsxDPyavQ4oUaKkc5r+R4A4tVHXDhynbf4+NBZyQ62XaW5rmSORw+Fj4ruX7cPzZor0cj4df27+7B7P24m/TTHuDtvNaXfWr4nvJ757Op42P07H18Pj/Pv54WJ5+fp1/H254e+MaxGZLqhIb/NJIALNR99nxH53+IAoFVkMQu/gug4QQbVPVAHFdUAWMFtAQMvrgCTI1QDUydLWAVwRgwUIouNSTEiyADguFZThAT0RJ2bEZO0zipMFBlmKpLkRB7D1RwiS1u0JsRj71DplK/Zkc8zi+k/INt4Lw04CAqq1Dwxx+GeUbOwzMjsaBVkBEarDZh31Rj19t50ntGbZgXjBanat2vQGj82QkG261KPixBsy2L7AEeLocwlI2Y85jW0iFwTvBQ3aplg+ASirQ00mRIclzZrVhNZkdkJQUQz22skcUlVz0dpHBEejqmlrL9x1slYztuYzu/EuajIpY659tKpWxpKnurFNB3H9X6i6oDpzI48tKIKcDqT91crnkzH2NXNtT4O9Dr3ixNr6TLwmF+LYpwIZyAyueLSahomkJep1dKkIQ3rJbaGl9SZ1BUhX+E1A4zEGJiRHEG2RYu1CwWGpqQM2Bs795DaggoY5prQ6eW5tnASameoF3XqjvVZl7n1mpW0t6lLrvjoIfaIOhRMRnUakgHGBIrdTKE3JqruWvjDcBpTuwHUJZATPpTxmTq9gD5BGuWpU3oT6+ib7Pwj9+Lc6P+32+3nz/vj/uGrr0bym8/07);lineShape=1;strokeColor=#000000;rounded=0;shadow=0;glass=0;sketch=1;jiggle=2;fillStyle=solid;curveFitting=1;align=center;verticalAlign=middle;fontFamily=Helvetica;fontSize=12;fontColor=default;fillColor=default;" parent="1" vertex="1">
          <mxGeometry x="638" y="-770" width="44" as="geometry" />
        </mxCell>
        <mxCell id="zB-dNNCVun9OCo5Wdo3Y-120" value="" style="shape=stencil(lVbLctswDPwaXTEkAYLgOU3/IzNxak1dO+M4bfP3gaphakIWbN/0wBLPxXLAh7ft0+tmSOHtdDz83PwZn0/bAb8NKY377eY4nvRpwMcBH14Ox82P4+F9/zy/vz5NltPTr8Pv6YS/My6GACFMsBQ+5k8ZkP99+D4DduP+DFArCHX2sQJGF2AcIEL1AAzRRBQAgwMg64EZuDqA0AJoAIlQHA9S2u8GqBmSUyUhkNwDGATXAWXpQSA5VeICoc9BC+2FlLXqwQKkrAOwQkELqLIOSGz7oIDseIgEEW3SXh90NEtvX4Bo3T4Amy5kqE4XApCxJ0DnfIJSe/sEkpyEEVLqARGyE5B6EO4BmpPjAQWoWkB0epATsFhAckJiLSFZgDhNKzr51SbtVUnJgwaAbg5KTzYhUZvdywBuC+WMnuiFFCCbxilhHS6UsGCbQM1OH2Qxe8o/JyQioJ4MZ7v88mzoeC8IXZyVEctivnWZO3woIGKrJM4ijosNw60KK/y0C4bcFXavvQ5B3wPVBfLEEGrfgivCU5r3G5WN7PlXpHOxT69oM9rzfe3/+tvMVXidalY7oKmJ4uVhUPnoqx9dik3bt1dA5Zy3GrWabOy94hBDCsbeo1dWtpQ77LlaBffjKV/6flu+uhUr3lFP5Ubu8/X7pQuN+/j9cbj7qnkDQB/+32xfxt1uvhif/7c3Yf0036Lx8RM=);lineShape=1;strokeColor=#3399FF;rounded=0;shadow=0;glass=0;sketch=1;jiggle=2;fillStyle=solid;curveFitting=1;align=center;verticalAlign=middle;fontFamily=Helvetica;fontSize=12;fontColor=default;fillColor=default;" parent="1" vertex="1">
          <mxGeometry x="594" y="-902" height="44" as="geometry" />
        </mxCell>
        <mxCell id="zB-dNNCVun9OCo5Wdo3Y-134" value="" style="shape=stencil(lVbLctswDPwaXTEgwec5Tf8jM3FqTV0747ivvy9UlaxBR5vkJtO7JAjsgpjk7mX/8LybPL9czqevu5/z42U/yafJ+/m4353ni35Ncj/J3dPpvPtyPn0/Pq6/nx8W5PL17fRj2eHXyquR2C8sz7/XFcdMzH+XPq+Mw3y8YpRAyTJqJZZtQqpUxBIc5bhNiBpANgQ9U9I2wWcKxRCyroA7BOJq8ULVgwMo24CyowICcpTY4FMiF7bxTMnGEzNJRvh/uzV8SBQgnm08EihCvDiD1wxUh+7LFu80Y0ASntjGH1tBXoULeZseplxQdZMMcA+KFVvpe3Iogt3zrWGg1jIVi/dv+Iu8jV4c1ILi7f5BSEDuc8tdz3039Ov2pRqtltU9MJ3F1jarukH8qsQBL5SBV1QMVstZtQn2d1STjb9QAPflm/sy1IOKy/aG2Ffe6cVCEeRTvW7j14okYBZu2ev61IoAvGvV6flsbtuwbrHhaCcEnSGQs2rD4v8gfBEzD/gKtKOlkcEs0FsqXTeIAfZBfacGsanWgBf19ZWhWEIJXKBqn7etUKvrESG3Rt8JlTx4fKuqcej9kQIi9P26oAU+RkrINklBRQVOuJpIusekvSBbR4yml7cukW66UACuX2aeYUbxrZFt5dXbkKqKC2hbK+etF1QtGTQu1cZgniVIYOWPz37vYejH/2HzaT4c1ln1+v9xONWldbCV+z8=);lineShape=1;strokeColor=#3399FF;rounded=0;shadow=0;glass=0;sketch=1;jiggle=2;fillStyle=solid;curveFitting=1;align=center;verticalAlign=middle;fontFamily=Helvetica;fontSize=12;fontColor=default;fillColor=default;" parent="1" vertex="1">
          <mxGeometry x="748" y="-880" width="44" as="geometry" />
        </mxCell>
        <mxCell id="zB-dNNCVun9OCo5Wdo3Y-136" value="" style="rounded=0;whiteSpace=wrap;html=1;shadow=0;glass=0;sketch=1;jiggle=2;fillStyle=solid;curveFitting=1;strokeColor=default;align=center;verticalAlign=middle;fontFamily=Helvetica;fontSize=12;fontColor=default;fillColor=default;" parent="1" vertex="1">
          <mxGeometry x="814" y="-1078" width="110" height="110" as="geometry" />
        </mxCell>
        <mxCell id="zB-dNNCVun9OCo5Wdo3Y-142" value="" style="shape=stencil(lVfJbttQDPwaXQk+8q3nNP2PAHFqo64dOE6Xvy8FwW5IV2PkpigzFLch6Ukf3rZPr5tJ+O18On7f/No9n7eTfplEdoft5rQ729Okj5M+vBxPm2+n4/vhefn79WlGzk8/jj9nC78X3mhUx8wS/rO80UK8vPm6EPa7w0cCExdHyJm4rhM6U/FfKEKa1wm1U66OUIWKrhNKJmFPGJCgg1gdoTXqIAbJ0aVeKLd1QhLK3qUh1Dr4AjXx+EEDfYCGRnwrCJ98EazwA+BvijYytM+UusebBUZ45pjQCkpmeG/f2qqCinHMf6uUEsKP7PFWQZjPGjqIoQpu+sFaVEB+NObT8APYV+o9+i8Abw0d/C/UQbxW/Rbzr9B+vxGMCrQf9MIkoF6ZNOAzFYDXG/vtjh6Hj9f0VSE+6CvxtcVXGigUYHRqsEFDAUa5I2AJAhboD8eR2NvFwhreD6wud/Di/beRW8AWsHiDIBXiE2kQAF8221rBvH0TmIL8fxafbEL7BNVEDTlka9R/wfYa2sTaqfiQs7UEIBS9tPx111fYQ7XFrSQ2tYCKmy0hL/vUYNDdNnFoC+ro+qixLfCYMJXnFPBIBSbC4A9TBwEbvvqUClXkz7i4ey0yCRgr89QJMqMKzgLD9zCH5NIl/29TvtnEqcLJOB8m/gA07TFQ5nyZ+JrJnRPTlOWDsKgbrsLwWdV0mfdrBPXTThUegJ8/k+8T7OHfVf6y2++Xo/7j/+MVb6+WXwD6+Bc=);lineShape=1;strokeColor=#000000;rounded=0;shadow=0;glass=0;sketch=1;jiggle=2;fillStyle=solid;curveFitting=1;align=center;verticalAlign=middle;fontFamily=Helvetica;fontSize=12;fontColor=default;fillColor=default;" parent="1" vertex="1">
          <mxGeometry x="660" y="-990" width="44" as="geometry" />
        </mxCell>
        <mxCell id="zB-dNNCVun9OCo5Wdo3Y-144" value="" style="shape=stencil(lVbLctswDPwaXTEkSJDEOU3/IzNxak1dO+O4bfL3haqRKrDRtrnJ9ILEYxfAkO5ejg/Ph4HDy+16+Xr4OT7ejkP6NDCP5+PhOt7sa0j3Q7p7ulwPX66X7+fH+ffzw4Scvr5dfkw3vM52KpTyZMXhbT6RQhx+n3yeDU7jeWPQEsXiDEqkkPcNSiGt3sBOZN8gF8r+hVrhCyzE0Rk0pYBeoOJjjiFQAEEn4uYMVEki8IiCd0gLSd3HB9Lu/kgC/Am9Py1TA/6s0W0yyhDf11j/4U8Vj2fKbR8fqWhPuqYon+rzKYkSowKz91+YYtrHC5W/7s+AQGXJ9oqvFAG+Us19fhrwp1GKff4V1KtR9vdbfQtQTKPo8U2g6Ctl7vnZQP4LJS95438F9RWKnp+mrwL1WFOPRy3F2NjpsUK9RGLPTzU+QP5nH28zPkC9B6+XqjA/hu86onUYwJ+wdKeVP3lR3E68/RBoJDifvv/IqridejVfX9Mjg/s/ip8E7wuQjBCoQQiJj8A4iBRmMyv6F2JaivK+xJjE1ywton4Xr5mqx+ORZINbpcNnELExPnhOM2xxaj3Ca16WOb6HV+9/tKkAZsA0Qn0Jog1JQNJJ4171ltIAXNpM9dVCqaGgdXF5LZr5hLKqfafITBWVeRXWatDgcmN162eTaQG5tHq8EaeivH50BfwPA/v4s3E+jafTvLBu/+83VDuat9t0/ws=);lineShape=1;strokeColor=#3399FF;rounded=0;shadow=0;glass=0;sketch=1;jiggle=2;fillStyle=solid;curveFitting=1;align=center;verticalAlign=middle;fontFamily=Helvetica;fontSize=12;fontColor=default;fillColor=default;" parent="1" vertex="1">
          <mxGeometry x="770" y="-1078" width="22" as="geometry" />
        </mxCell>
        <mxCell id="zB-dNNCVun9OCo5Wdo3Y-145" value="" style="rounded=0;whiteSpace=wrap;html=1;shadow=0;glass=0;sketch=1;jiggle=2;fillStyle=solid;curveFitting=1;strokeColor=default;align=center;verticalAlign=middle;fontFamily=Helvetica;fontSize=12;fontColor=default;fillColor=default;" parent="1" vertex="1">
          <mxGeometry x="682" y="-968" width="44" height="176" as="geometry" />
        </mxCell>
        <mxCell id="zB-dNNCVun9OCo5Wdo3Y-149" value="" style="rounded=0;whiteSpace=wrap;html=1;shadow=0;glass=0;sketch=1;jiggle=2;curveFitting=1;align=center;verticalAlign=middle;fontFamily=Helvetica;fontSize=12;fillStyle=solid;fillColor=#FF6666;strokeColor=#b85450;" parent="1" vertex="1">
          <mxGeometry x="682" y="-968" width="44" height="22" as="geometry" />
        </mxCell>
        <mxCell id="CY8MMUGnLJXL2RhmMoPn-1" value="" style="rounded=0;whiteSpace=wrap;html=1;glass=0;shadow=1;sketch=1;curveFitting=1;jiggle=2;" parent="1" vertex="1">
          <mxGeometry x="418" y="-1584" width="44" height="154" as="geometry" />
        </mxCell>
        <mxCell id="CY8MMUGnLJXL2RhmMoPn-2" value="" style="rounded=0;whiteSpace=wrap;html=1;glass=0;shadow=1;sketch=1;curveFitting=1;jiggle=2;" parent="1" vertex="1">
          <mxGeometry x="418" y="-1518" width="110" height="110" as="geometry" />
        </mxCell>
        <mxCell id="CY8MMUGnLJXL2RhmMoPn-3" value="" style="rounded=0;whiteSpace=wrap;html=1;glass=0;shadow=1;sketch=1;curveFitting=1;jiggle=2;" parent="1" vertex="1">
          <mxGeometry x="902" y="-1694" width="88" height="242" as="geometry" />
        </mxCell>
        <mxCell id="CY8MMUGnLJXL2RhmMoPn-10" value="" style="shape=stencil(lVfZctswDPwavWJI8H5O0//ITJzaU9fOOE6Pvy9clXIAS6v4TRKxIo5dgBzCw9v26XUzsHs7n47fN792z+ftEL4MzLvDdnPaneVpCI9DeHg5njbfTsf3w/P4/vp0sbw8/Tj+vPzh94irjly4oNj9Gb9E8vnfh6+j/X53+GDfIrmq7L2nVJYB3skOTiMa+Qa2qJSiAnCmlAAgUG0KEAI1FIS4lHTQnmJcBlRxwGtApQairomCDjolamiHREXnNZdemXlAIV8UoCQcw5T1DqiRCkirAIxLjak56FLUXGqpOzkPcJQNoBCDHYqz7BOyFMCllLvHE6DBoCNTzJqtVwLPIrgSF7vFf7bMKyJRDTaIwMuATJG1vdAR0NtbdotoI6CSI9YhS509sJcOof8vTGkoYLZiqJUcALAIWqdUBJgBIBRLJNFTrYAX3LvcJwFZ5Ms3LoGiFRFDuydoccDGgNMqy8nwAtdNHCiGeJgYNVAwTMqw2ZfQm9xnqe1tllbEEwsF3YnX9BnYkmmlBch4ys0GUQA3mtXDShfjm6ziNnkzQFf68P322cgTDwamrJvwZfKgmtn+lXMX00K/M3NHZmcC9pWyLrAMZzQ6pR9FzdLouovzgEnq0wGDu1jnM+QthRi3F8lpM8eqSBXkdKLwVAOKaDR3FU4lIAcCbn31eihE4coRsJgDWO/4S/lMmnHSuIA7slx1tL5Lbl7yUk6dTfmA7OUwl4y9AwNWmlAp1h7Em24muIxcNGxiL+bVvqK264mjyU8B/pfpPH3NP/r/vZeEdXt5uN5IXnb7/Xih+bhubzDyabz9hMe/);lineShape=1;strokeColor=#000000;" parent="1" vertex="1">
          <mxGeometry x="704" y="-1628" height="44" as="geometry" />
        </mxCell>
        <mxCell id="CY8MMUGnLJXL2RhmMoPn-17" value="" style="shape=stencil(lVbZctswDPwavWJIgODxnKb/kZk4tSaunXHcHH9fqBrVJmRvJm8yjSVx7AIY5O51+/CyGTi8no6H5837+HjaDvJjYB73281xPNnXIPeD3D0djptfx8Of/eP8++Vhspy+fh/ephs+ZlxNVNqE4vA5nyhV/nfwc7bfjfsL+8YUevso1BIAVGLtAFyo5NuAGAKF0CESk0TwRKOQ+xgKpQKDyH0QJVIOtwFFfdRN4AslkDqAUgOAbC6VHlApgEIoU3SARglkKQWKrnLnTF9FWKHa6okCfIrZk8mCgHmlmnp7uwFkycjn7BMlcP+KSS1SURDAQuXFvjaK0P/cc7ua/wITpNIDElUUsL3QU7sKFSA3act9F4AEABqpVu8SYoUxNbkYlKRCLSTuAQUydVIb+zI0LM/Su2QKV+SSxbCSZ0TyVMqOeQUyT62NuhesSwFqpEScPQAFLUbWugKAtJoahFcuwU5MGldBA/kIafFZZRBzIHZJ5UVQN+yrk1uDTfW79rF5aue2VOV6SrOXp9oJIB5X75LNtgRaKlsD6otmV0iDHcMNw6npoBfCMvD/Z4kExWw06kPIsGjWVEvP0wSLYAuIa9oCu4VlyKWUIasl++4SKaC5KX7QBriNaPDKx1NWK5Xo7CO4P2c/xwNlUF/rdc6fuMj6un31ImA49Csvm9C5vhFI4Lsb59f29nFeb5/G3W7eji//9+uwHc2rtNz/BQ==);lineShape=1;strokeColor=#3399FF;" parent="1" vertex="1">
          <mxGeometry x="858" y="-1716" height="22" as="geometry" />
        </mxCell>
        <mxCell id="CY8MMUGnLJXL2RhmMoPn-30" value="&lt;h1 style=&quot;margin-top: 0px; font-size: 24px;&quot;&gt;Dash before hitting spikes&lt;/h1&gt;" style="text;html=1;whiteSpace=wrap;overflow=hidden;rounded=0;fontSize=24;" parent="1" vertex="1">
          <mxGeometry x="-572" y="-1408" width="264" height="88" as="geometry" />
        </mxCell>
        <mxCell id="CY8MMUGnLJXL2RhmMoPn-32" value="&lt;h1 style=&quot;margin-top: 0px; font-size: 24px;&quot;&gt;Dash in tight spaces&lt;/h1&gt;" style="text;html=1;whiteSpace=wrap;overflow=hidden;rounded=0;horizontal=1;imageAspect=1;absoluteArcSize=0;autosize=0;autosizeGrid=1;fixedWidth=0;fontSize=24;" parent="1" vertex="1">
          <mxGeometry y="-1298" width="264" height="44" as="geometry" />
        </mxCell>
        <mxCell id="CY8MMUGnLJXL2RhmMoPn-35" style="edgeStyle=none;curved=1;rounded=0;orthogonalLoop=1;jettySize=auto;html=1;exitX=0.5;exitY=1;exitDx=0;exitDy=0;fontSize=12;startSize=8;endSize=8;" parent="1" source="CY8MMUGnLJXL2RhmMoPn-32" target="CY8MMUGnLJXL2RhmMoPn-32" edge="1">
          <mxGeometry relative="1" as="geometry" />
        </mxCell>
        <mxCell id="CY8MMUGnLJXL2RhmMoPn-36" value="&lt;h1 style=&quot;margin-top: 0px; font-size: 24px;&quot;&gt;Dash through hole&lt;/h1&gt;" style="text;html=1;whiteSpace=wrap;overflow=hidden;rounded=0;horizontal=1;imageAspect=1;absoluteArcSize=0;autosize=0;autosizeGrid=1;fixedWidth=0;fontSize=24;" parent="1" vertex="1">
          <mxGeometry x="-689" y="-990" width="264" height="44" as="geometry" />
        </mxCell>
        <mxCell id="CY8MMUGnLJXL2RhmMoPn-61" value="&lt;h1 style=&quot;margin-top: 0px; font-size: 24px;&quot;&gt;Dash for secret&lt;/h1&gt;" style="text;html=1;whiteSpace=wrap;overflow=hidden;rounded=0;horizontal=1;imageAspect=1;absoluteArcSize=0;autosize=0;autosizeGrid=1;fixedWidth=0;fontSize=24;" parent="1" vertex="1">
          <mxGeometry x="-264" y="-1012" width="264" height="44" as="geometry" />
        </mxCell>
        <mxCell id="CY8MMUGnLJXL2RhmMoPn-62" value="&lt;h1 style=&quot;margin-top: 0px; font-size: 24px;&quot;&gt;Dash around platforms&lt;/h1&gt;" style="text;html=1;whiteSpace=wrap;overflow=hidden;rounded=0;horizontal=1;imageAspect=1;absoluteArcSize=0;autosize=0;autosizeGrid=1;fixedWidth=0;fontSize=24;" parent="1" vertex="1">
          <mxGeometry x="554.54" y="-1176.29" width="308" height="44" as="geometry" />
        </mxCell>
        <mxCell id="CY8MMUGnLJXL2RhmMoPn-63" value="&lt;h1 style=&quot;margin-top: 0px; font-size: 24px;&quot;&gt;Dash maximum distance&lt;/h1&gt;" style="text;html=1;whiteSpace=wrap;overflow=hidden;rounded=0;horizontal=1;imageAspect=1;absoluteArcSize=0;autosize=0;autosizeGrid=1;fixedWidth=0;fontSize=24;" parent="1" vertex="1">
          <mxGeometry x="572" y="-1782" width="308" height="44" as="geometry" />
        </mxCell>
        <mxCell id="CY8MMUGnLJXL2RhmMoPn-138" value="" style="rounded=0;whiteSpace=wrap;html=1;glass=0;shadow=1;sketch=1;curveFitting=1;jiggle=2;" parent="1" vertex="1">
          <mxGeometry x="-528" y="-1287" width="55" height="121" as="geometry" />
        </mxCell>
        <mxCell id="CY8MMUGnLJXL2RhmMoPn-141" value="Optional spikes + dash recharge here" style="text;html=1;align=center;verticalAlign=middle;whiteSpace=wrap;rounded=0;fontSize=16;" parent="1" vertex="1">
          <mxGeometry x="-550" y="-1071" width="217" height="30" as="geometry" />
        </mxCell>
        <mxCell id="CY8MMUGnLJXL2RhmMoPn-215" value="" style="ellipse;whiteSpace=wrap;html=1;aspect=fixed;fillStyle=solid;fillColor=#97D077;strokeColor=#82B366;" parent="1" vertex="1">
          <mxGeometry x="-495" y="-1309" width="22" height="22" as="geometry" />
        </mxCell>
        <mxCell id="CY8MMUGnLJXL2RhmMoPn-216" value="" style="ellipse;whiteSpace=wrap;html=1;aspect=fixed;fillStyle=solid;fillColor=#97D077;strokeColor=#82B366;" parent="1" vertex="1">
          <mxGeometry x="-242" y="-1342" width="22" height="22" as="geometry" />
        </mxCell>
        <mxCell id="CY8MMUGnLJXL2RhmMoPn-217" value="" style="ellipse;whiteSpace=wrap;html=1;aspect=fixed;fillStyle=solid;fillColor=#97D077;strokeColor=#82B366;" parent="1" vertex="1">
          <mxGeometry x="-198" y="-968" width="22" height="22" as="geometry" />
        </mxCell>
        <mxCell id="mZcW2EEmMSQklxctBWLc-67" value="" style="rounded=0;whiteSpace=wrap;html=1;glass=0;shadow=1;sketch=1;curveFitting=1;jiggle=2;" vertex="1" parent="1">
          <mxGeometry x="-529.5" y="-1529" width="176" height="44" as="geometry" />
        </mxCell>
        <mxCell id="mZcW2EEmMSQklxctBWLc-80" value="" style="rounded=0;whiteSpace=wrap;html=1;shadow=0;glass=0;sketch=1;jiggle=2;curveFitting=1;align=center;verticalAlign=middle;fontFamily=Helvetica;fontSize=12;fillStyle=solid;fillColor=#FF6666;strokeColor=#b85450;" vertex="1" parent="1">
          <mxGeometry x="-162" y="-2024" width="74" height="22" as="geometry" />
        </mxCell>
        <mxCell id="mZcW2EEmMSQklxctBWLc-81" value="" style="rounded=0;whiteSpace=wrap;html=1;shadow=0;glass=0;sketch=1;jiggle=2;curveFitting=1;align=center;verticalAlign=middle;fontFamily=Helvetica;fontSize=12;fillStyle=solid;fillColor=#FF6666;strokeColor=#b85450;" vertex="1" parent="1">
          <mxGeometry x="-353.5" y="-1529" width="529.5" height="55" as="geometry" />
        </mxCell>
        <mxCell id="mZcW2EEmMSQklxctBWLc-83" value="" style="rounded=0;whiteSpace=wrap;html=1;shadow=0;glass=0;fillStyle=solid;align=center;verticalAlign=middle;fontFamily=Helvetica;fontSize=12;fillColor=#000000;fontColor=#333333;strokeColor=none;strokeWidth=3;" vertex="1" parent="1">
          <mxGeometry x="468" y="-891.25" width="66" height="22" as="geometry" />
        </mxCell>
        <mxCell id="mZcW2EEmMSQklxctBWLc-85" value="" style="rounded=0;whiteSpace=wrap;html=1;shadow=0;glass=0;sketch=1;jiggle=2;curveFitting=1;align=center;verticalAlign=middle;fontFamily=Helvetica;fontSize=12;fillStyle=solid;fillColor=#FF6666;strokeColor=#b85450;" vertex="1" parent="1">
          <mxGeometry x="726" y="-880" width="22" height="22" as="geometry" />
        </mxCell>
        <mxCell id="mZcW2EEmMSQklxctBWLc-87" value="" style="rounded=0;whiteSpace=wrap;html=1;shadow=0;glass=0;fillStyle=solid;align=center;verticalAlign=middle;fontFamily=Helvetica;fontSize=12;fillColor=#000000;fontColor=#333333;strokeColor=none;strokeWidth=3;" vertex="1" parent="1">
          <mxGeometry x="-162.96" y="-1782" width="74.96" height="110" as="geometry" />
        </mxCell>
        <mxCell id="mZcW2EEmMSQklxctBWLc-88" value="" style="rounded=0;whiteSpace=wrap;html=1;shadow=0;glass=0;fillStyle=solid;align=center;verticalAlign=middle;fontFamily=Helvetica;fontSize=12;fillColor=#000000;fontColor=#333333;strokeColor=none;strokeWidth=3;" vertex="1" parent="1">
          <mxGeometry x="160" y="-1694" width="220" height="44" as="geometry" />
        </mxCell>
        <mxCell id="mZcW2EEmMSQklxctBWLc-89" value="" style="rounded=0;whiteSpace=wrap;html=1;shadow=0;glass=0;fillStyle=solid;align=center;verticalAlign=middle;fontFamily=Helvetica;fontSize=12;fillColor=#000000;fontColor=#333333;strokeColor=none;strokeWidth=3;" vertex="1" parent="1">
          <mxGeometry x="-162" y="-2002" width="77" height="110" as="geometry" />
        </mxCell>
        <mxCell id="mZcW2EEmMSQklxctBWLc-94" value="" style="shape=stencil(lVjbchoxDP0aXjWW5etzmv5HZkIKUxoyhPTy95W72QXLcChvy64O1tHlWPZKHt43T2/rlXfvx8P++/rX9vm4WcmXlffb1836sD3q00oeV/Lwsj+svx32H6/P0++3p2bZnn7sf7Z/+D3hHIlrIO/+TC9qoZD/vfk62e+2r2f2nnLq7RNJvW6fyMfeXkjkuj07qtIBSqFaACBR8T1AKDFgEIh7QE6U3XWAeAqhA6RCEawQmEIfpFhJwnVAVNL9CkEBHgAq1T6sUimCFdRj6cMqjjzgkCOVfgXPMErFk+9Jc6CAAJmCSRwF4FFlEu4pzKVy2V7z3Jc2E6P/TxR7xo4c8F8bRYKxr8i+zvRO/heQMrWvzsSHE+qcxd+FsMw5ubpCz5gLZexS6atIm8nhFVLtAQW2fwOYOmUqQF8UEEsP8MSYw6e+nQEEc/DVAiLm4JIFJORSsRLWAMilcoF0ulGrA2kk8wrwbAEeA1gswKEoFSvDmukMhL4BqgXAPIyax1BVW1gHlxiTNruhAhyuVtOibQUsGj4MABQlLe+RNO6HOHD4FMI7WhRzSEMt3VCNOBYfDqtECwg4ShwsAA0NmmkjxrdbNI0igKvVJs7P5Xi1RYcVYKa1gYYowR2xzJ/PM41J3w/oOej+4LEI+F7I2g6EoyT37XEjQOYZ+T91qcCJuGZKvXgHPPfoXGLnGFjb0c492jwoQn4e007+VND/ZVDJRXIu24udkzhCgI7jZhpupw4ASNUy0LJDg0/iuWYWyg7un9Fb3daRHQ23wdukJQWAqIrYsURZoaHBR7vh5gx7jfNwUApQt5mpmrOeg9thtr2pI3gE9kK5b5xTa1x2aJ7TFvuKCdjGbAMv6DS2SW72wB83r74UtsNHhqXIzhcAAXL2hNQIA2lxdkdQ+wxKwtkSals19N8Fax+AtAwHkjbOgASoPVt7HE8zaLdJGtrzYJ+g//ddjty214fTTczLdrebLnLOv9ubG3013frI418=);lineShape=1;strokeColor=#000000;" vertex="1" parent="1">
          <mxGeometry x="-483.503237725301" y="-1693.745045437508" width="160.37928532701324" height="154.370268824511" as="geometry" />
        </mxCell>
        <mxCell id="mZcW2EEmMSQklxctBWLc-95" value="" style="shape=stencil(lVZJchsxDHzNXFEEd54d5x+ushxNRZFcspzl98FkwokAiV3xbUR1k1gayxQe3vZPr7vJu7fL+fR192N+vuyn8Gnyfj7ud+f5Il9TeJzCw8vpvPtyPr0fn9ffr08Lcvn6dvq+3PBz5bVCkReWd7/WE5+p5T8nn1fCYT5eEWqm5b9rQiMXxoQSqDVFCIVSHBNSpRYVITEl8EL0lJ0i5EShjgm+Wh9KoVLGBI6UkyLURgkQPJWs8K1RBS6wjdGCBx4w+aLxlQqP8c7a3zJFkGVnA9QCBYh3bONTgL+C1ymuCarOUTD3e4rw/qoVURqUEFPU8SlYo55Y56tkyg3h2839DvgbbL5K7Rq/XwLkTXyYGOgzdvVu+EgR2B+7ujZ87S+O7jd65l7UI/u1HppUMPA39Ghv+EIN5DeQ03qQ+koJ5cvr+LNz/YqBgNLNAx4LNFoHgocFYPCSMJBgsdYUvKOG8dr+WmCCpUEYfKAECzjrhlJdHzyjBmc6dCUHBMp2ZkhBViC4D+MDVW1QzrADecmnlmiK/eR+CXAfQZ0gJ6inyJw0TVfeTECjMom9nkoscwo4vTRlbVLofe8uXjTMWnW4aARf2eA9sEeG3N+Qbw70Oh3hzVj1cMpIzZoxkMgjf2XIVa1qYuRvs/HkTef3Vedu6pJx3S97g3miUMY+m+VpqVVQmUJg7fSiCpy1rGUnYWX0Qu2z8WonRc3iw0vsfxDk49/O/DIfDuvKff2/3bHlaN3Pw+Nv);lineShape=1;strokeColor=#000000;" vertex="1" parent="1">
          <mxGeometry x="-375.3743765557874" y="-1690.7955103132213" width="50.81482955483486" height="10.267231668714672" as="geometry" />
        </mxCell>
        <mxCell id="mZcW2EEmMSQklxctBWLc-96" value="" style="shape=stencil(lVjLbhsxDPwaXwlK1POcpv8RIE5tNI0Dx339fbk1tDa53jFyW6+HK5EckiNt5OFj9/S+3UT+OB0P37e/98+n3Ua+bGLcv+22x/1JnzbyuJGHl8Nx++14+Pn2fP79/jQhp6cfh1/TF/6c7Zhanowi/z2/6EKl/H/z9Yx/3b9d4RNlhw+U2jq+US4G3xpJXscHoeoMEgVeN1APQjQGtZMAD2KlGqwBXkEKFTYGpVEJIEaFglgDIZZ1g5ypWIPciEGUSqJot5QFhrUGKtUYpD7CcNugDhrMBoVaBYmOFN0KiQpiRqbarIH6ALakzIk20ymO3N806EzdRikxVWQgFC01RPkLnO6ZovVBlF3IoPrEqUECTneNOvsoxQQM0sIH/QQyCBQt+WIf/L2dB/27W4NEAsLaClXbNEKjhlbQgnQGQqkDgzBKfu4aFBBZA7GNquYF9IzG3oMC61PxJdmswa464W1INcn4+83iA3WED54UWhqo1IJvSAxJp8Uf2OEZtFTF5+q/jxgUqXeHb6i3zJ3kKj5oP0I5uvgHxDfx+09jRqzhk8Xn4dAa3tVkvRefZr+v/Mf5SuLwsFdr+Hx9VcTnQJkdXnD9BjeTcTw1/TZfBasQ9tMs4xa3wAucltN+7P4j1CBT//H1C/M7i6wL/xPG9+TwSIBMfPD9AUmiiW/Z4ZEi+jQ+j5F1yVdG8Ww+X4EpA8Lp0BNbACHfkwauI6oLd6SBK3n1AeVApQFbTt+Zw70NF2eSJjjFArMfeyqIUJ/QJaJdIlWo0VSuCHuDhFaQhUarY1atyhW3Je0tqNc1XztqULBcYVsMqpUDmq6LaZZ5bHJNXLt2miPsXyrfu/VBjwxIcpXFOU1PFEgh6PfclvTMgkaCHgfy8lQE2Kcy1M3wiuk6zTDrg57s0NSJ7AtC+wiSaSF5Lqm2RcK0E9s09PkgtnJadkHVIkd9LPjjRO+jka/gXcu4KvGbBjxOJ1cLICGlERWPzxAvC3wA1aztxwWoDSW2gufsA9ownj2eQQLYl742NFTJvCBEHoW3gnc6XAmE4y/d41Hdz2P16joHCf3PXv/cx+vD5a7pZf/6er6quv7f303pq/O9ljz+Aw==);lineShape=1;strokeColor=#3399FF;" vertex="1" parent="1">
          <mxGeometry x="-309.3863946453898" y="-1737.1910032851347" width="124.64542497532207" height="41.580919414193296" as="geometry" />
        </mxCell>
        <mxCell id="mZcW2EEmMSQklxctBWLc-97" value="" style="shape=stencil(lVfZbhsxDPyafSUkURef0/Q/AsSpjbp24Dg9/r5cLOSGTDRo3ta7HJEaDg8vfPeyf3jeLSm8XC/n77tfh8frfuEvS0qH0353OVz1aeH7he+ezpfdt8v59fS4/X5+WC3Xpx/nn+sJvzecNOK8olL4s72Jfbz5ugGOh9MbQO8U2QBSJ4lzQBPqYgDcKQsARKrBAHKnFOaAmsbnASiN1p8zQGHiaAC1UgKXzkylGEDLxCAkztRsSD1CDzFSsLRKp15BHqhWay8kDEiiKN6+g4CYevPxVHDjSGJ1JBXqKPgkC1MCqggUHKFCrSN7d9+uDDQUf7R89gT50a9WQl09IgmR2POb1lkBVUDcrX2jCuw1m+zPj0APMVFwklZCEUAVETxDKGMxj75wAxQqyEOhZEPSHEdQx+qhOVEnqijJWseWVSmDt1lZNidr7UWgLIWycyCjE0zSHCxHMdyUPtFRjd4B0l0alN/s26iMSd2Iq/s8lDirMxePngDtgyW0q9IBoYGaq0se82RyXzcLtC4F1E329lo3SBGftdcMO0J1XGXUeKvvjKXgGxQfUhYKgKKSvUhZxjSZDVjX7DjCYaMjPFnAmhfU7WSsBLc6UJ9ARrqGVNsrEtwRVJXBOghwa5HoB3gYA+Jje10p/PmojLXvhOrskSrknSoiZTQOmp/HaejwY3td4mz82r1B69WuU619w+M1vBvgMjrZzIG4C+vEAopQQHatNGOKOhW3+tYxHmacfm5X/g+APvxbzZ8Ox+O22b/97ld5fbX9DeD7vw==);lineShape=1;strokeColor=#3399FF;" vertex="1" parent="1">
          <mxGeometry x="-212.66641470824698" y="-1723.3723907963763" width="27.979234734768987" height="19.095577917063405" as="geometry" />
        </mxCell>
        <mxCell id="mZcW2EEmMSQklxctBWLc-98" value="" style="ellipse;whiteSpace=wrap;html=1;aspect=fixed;fillStyle=solid;fillColor=#97D077;strokeColor=#82B366;" vertex="1" parent="1">
          <mxGeometry x="-561" y="-2024" width="22" height="22" as="geometry" />
        </mxCell>
      </root>
    </mxGraphModel>
  </diagram>
  <diagram id="n4HjMe_HOersxUufLIfm" name="Page-2">
    <mxGraphModel grid="0" page="0" gridSize="22" guides="1" tooltips="1" connect="1" arrows="1" fold="1" pageScale="1" pageWidth="850" pageHeight="1100" math="0" shadow="0">
      <root>
        <mxCell id="0" />
        <mxCell id="1" parent="0" />
      </root>
    </mxGraphModel>
  </diagram>
</mxfile>
